<mxfile host="app.diagrams.net" agent="Mozilla/5.0 (Windows NT 10.0; Win64; x64) AppleWebKit/537.36 (KHTML, like Gecko) Chrome/136.0.0.0 Safari/537.36" version="27.0.5">
  <diagram name="Страница — 1" id="a7U0FXz1eIUvCpKrAKSJ">
    <mxGraphModel dx="1895" dy="2127" grid="1" gridSize="10" guides="0" tooltips="1" connect="1" arrows="1" fold="1" page="1" pageScale="1" pageWidth="827" pageHeight="1169" math="0" shadow="0">
      <root>
        <mxCell id="0" />
        <mxCell id="1" parent="0" />
        <mxCell id="iML82PHEN0vILoig2JXb-1" value="" style="rounded=1;whiteSpace=wrap;html=1;" vertex="1" parent="1">
          <mxGeometry x="190" y="290" width="1110" height="50" as="geometry" />
        </mxCell>
        <mxCell id="O4j0RT5pReK0kF49qRVM-4" value="" style="rounded=1;whiteSpace=wrap;html=1;" parent="1" vertex="1">
          <mxGeometry x="191" y="10" width="1110" height="50" as="geometry" />
        </mxCell>
        <mxCell id="O4j0RT5pReK0kF49qRVM-2" value="" style="rounded=1;whiteSpace=wrap;html=1;" parent="1" vertex="1">
          <mxGeometry x="190" y="80" width="1110" height="50" as="geometry" />
        </mxCell>
        <mxCell id="O4j0RT5pReK0kF49qRVM-3" value="" style="rounded=1;whiteSpace=wrap;html=1;" parent="1" vertex="1">
          <mxGeometry x="191" y="151.04000000000002" width="1110" height="50" as="geometry" />
        </mxCell>
        <mxCell id="WlIdeiedV5WxPYd-yGUF-1" value="" style="rounded=1;whiteSpace=wrap;html=1;" parent="1" vertex="1">
          <mxGeometry x="191" y="-129" width="1110" height="50" as="geometry" />
        </mxCell>
        <mxCell id="WlIdeiedV5WxPYd-yGUF-2" value="" style="rounded=1;whiteSpace=wrap;html=1;" parent="1" vertex="1">
          <mxGeometry x="191" y="-59" width="1110" height="50" as="geometry" />
        </mxCell>
        <mxCell id="WlIdeiedV5WxPYd-yGUF-3" value="" style="rounded=1;whiteSpace=wrap;html=1;" parent="1" vertex="1">
          <mxGeometry x="190" y="220" width="1110" height="50" as="geometry" />
        </mxCell>
        <mxCell id="WlIdeiedV5WxPYd-yGUF-4" value="" style="rounded=1;whiteSpace=wrap;html=1;" parent="1" vertex="1">
          <mxGeometry x="190" y="359" width="1110" height="50" as="geometry" />
        </mxCell>
        <mxCell id="WlIdeiedV5WxPYd-yGUF-5" value="" style="rounded=1;whiteSpace=wrap;html=1;" parent="1" vertex="1">
          <mxGeometry x="190" y="429" width="1110" height="50" as="geometry" />
        </mxCell>
        <mxCell id="WlIdeiedV5WxPYd-yGUF-6" value="" style="rounded=1;whiteSpace=wrap;html=1;" parent="1" vertex="1">
          <mxGeometry x="190" y="499" width="1110" height="50" as="geometry" />
        </mxCell>
        <mxCell id="WlIdeiedV5WxPYd-yGUF-7" value="" style="rounded=1;whiteSpace=wrap;html=1;" parent="1" vertex="1">
          <mxGeometry x="190" y="569" width="1110" height="50" as="geometry" />
        </mxCell>
        <mxCell id="WlIdeiedV5WxPYd-yGUF-8" value="" style="rounded=1;whiteSpace=wrap;html=1;labelBackgroundColor=none;labelBorderColor=none;" parent="1" vertex="1">
          <mxGeometry x="190" y="639" width="1110" height="50" as="geometry" />
        </mxCell>
        <mxCell id="WlIdeiedV5WxPYd-yGUF-9" value="" style="ellipse;whiteSpace=wrap;html=1;aspect=fixed;" parent="1" vertex="1">
          <mxGeometry x="321" y="-114" width="20" height="20" as="geometry" />
        </mxCell>
        <mxCell id="WlIdeiedV5WxPYd-yGUF-10" value="a00 * b00 (d000)" style="text;html=1;align=left;verticalAlign=middle;whiteSpace=wrap;rounded=0;" parent="1" vertex="1">
          <mxGeometry x="201" y="-119" width="120" height="30" as="geometry" />
        </mxCell>
        <mxCell id="WlIdeiedV5WxPYd-yGUF-11" value="" style="shape=waypoint;sketch=0;fillStyle=solid;size=6;pointerEvents=1;points=[];fillColor=none;resizable=0;rotatable=0;perimeter=centerPerimeter;snapToPoint=1;" parent="1" vertex="1">
          <mxGeometry x="294.5" y="-149" width="20" height="20" as="geometry" />
        </mxCell>
        <mxCell id="WlIdeiedV5WxPYd-yGUF-12" value="" style="shape=waypoint;sketch=0;fillStyle=solid;size=6;pointerEvents=1;points=[];fillColor=none;resizable=0;rotatable=0;perimeter=centerPerimeter;snapToPoint=1;" parent="1" vertex="1">
          <mxGeometry x="344.5" y="-149" width="20" height="20" as="geometry" />
        </mxCell>
        <mxCell id="WlIdeiedV5WxPYd-yGUF-13" value="a00" style="text;html=1;align=center;verticalAlign=middle;resizable=0;points=[];autosize=1;strokeColor=none;fillColor=none;" parent="1" vertex="1">
          <mxGeometry x="270" y="-154" width="40" height="30" as="geometry" />
        </mxCell>
        <mxCell id="WlIdeiedV5WxPYd-yGUF-14" value="b00" style="text;html=1;align=center;verticalAlign=middle;resizable=0;points=[];autosize=1;strokeColor=none;fillColor=none;" parent="1" vertex="1">
          <mxGeometry x="320" y="-154" width="40" height="30" as="geometry" />
        </mxCell>
        <mxCell id="WlIdeiedV5WxPYd-yGUF-16" value="" style="ellipse;whiteSpace=wrap;html=1;aspect=fixed;" parent="1" vertex="1">
          <mxGeometry x="290" y="23.96" width="20" height="20" as="geometry" />
        </mxCell>
        <mxCell id="WlIdeiedV5WxPYd-yGUF-17" value="" style="ellipse;whiteSpace=wrap;html=1;aspect=fixed;" parent="1" vertex="1">
          <mxGeometry x="390" y="23.96" width="20" height="20" as="geometry" />
        </mxCell>
        <mxCell id="WlIdeiedV5WxPYd-yGUF-18" value="" style="ellipse;whiteSpace=wrap;html=1;aspect=fixed;" parent="1" vertex="1">
          <mxGeometry x="320" y="95" width="20" height="20" as="geometry" />
        </mxCell>
        <mxCell id="WlIdeiedV5WxPYd-yGUF-19" value="" style="ellipse;whiteSpace=wrap;html=1;aspect=fixed;" parent="1" vertex="1">
          <mxGeometry x="466" y="-114" width="20" height="20" as="geometry" />
        </mxCell>
        <mxCell id="WlIdeiedV5WxPYd-yGUF-20" value="" style="shape=waypoint;sketch=0;fillStyle=solid;size=6;pointerEvents=1;points=[];fillColor=none;resizable=0;rotatable=0;perimeter=centerPerimeter;snapToPoint=1;" parent="1" vertex="1">
          <mxGeometry x="445.5" y="-149" width="20" height="20" as="geometry" />
        </mxCell>
        <mxCell id="WlIdeiedV5WxPYd-yGUF-21" value="" style="shape=waypoint;sketch=0;fillStyle=solid;size=6;pointerEvents=1;points=[];fillColor=none;resizable=0;rotatable=0;perimeter=centerPerimeter;snapToPoint=1;" parent="1" vertex="1">
          <mxGeometry x="505.5" y="-149" width="20" height="20" as="geometry" />
        </mxCell>
        <mxCell id="WlIdeiedV5WxPYd-yGUF-22" value="" style="shape=waypoint;sketch=0;fillStyle=solid;size=6;pointerEvents=1;points=[];fillColor=none;resizable=0;rotatable=0;perimeter=centerPerimeter;snapToPoint=1;" parent="1" vertex="1">
          <mxGeometry x="455" y="409" width="20" height="20" as="geometry" />
        </mxCell>
        <mxCell id="WlIdeiedV5WxPYd-yGUF-24" value="" style="ellipse;whiteSpace=wrap;html=1;aspect=fixed;" parent="1" vertex="1">
          <mxGeometry x="470" y="444" width="20" height="20" as="geometry" />
        </mxCell>
        <mxCell id="WlIdeiedV5WxPYd-yGUF-25" value="" style="shape=waypoint;sketch=0;fillStyle=solid;size=6;pointerEvents=1;points=[];fillColor=none;resizable=0;rotatable=0;perimeter=centerPerimeter;snapToPoint=1;" parent="1" vertex="1">
          <mxGeometry x="310" y="130" width="20" height="20" as="geometry" />
        </mxCell>
        <mxCell id="WlIdeiedV5WxPYd-yGUF-26" value="" style="ellipse;whiteSpace=wrap;html=1;aspect=fixed;" parent="1" vertex="1">
          <mxGeometry x="365" y="170" width="20" height="20" as="geometry" />
        </mxCell>
        <mxCell id="WlIdeiedV5WxPYd-yGUF-27" value="" style="ellipse;whiteSpace=wrap;html=1;aspect=fixed;" parent="1" vertex="1">
          <mxGeometry x="600" y="374" width="20" height="20" as="geometry" />
        </mxCell>
        <mxCell id="WlIdeiedV5WxPYd-yGUF-28" value="a01" style="text;html=1;align=center;verticalAlign=middle;resizable=0;points=[];autosize=1;strokeColor=none;fillColor=none;" parent="1" vertex="1">
          <mxGeometry x="418.5" y="-153" width="40" height="30" as="geometry" />
        </mxCell>
        <mxCell id="WlIdeiedV5WxPYd-yGUF-29" value="b10" style="text;html=1;align=center;verticalAlign=middle;resizable=0;points=[];autosize=1;strokeColor=none;fillColor=none;" parent="1" vertex="1">
          <mxGeometry x="478.5" y="-153" width="40" height="30" as="geometry" />
        </mxCell>
        <mxCell id="WlIdeiedV5WxPYd-yGUF-31" value="" style="shape=waypoint;sketch=0;fillStyle=solid;size=6;pointerEvents=1;points=[];fillColor=none;resizable=0;rotatable=0;perimeter=centerPerimeter;snapToPoint=1;" parent="1" vertex="1">
          <mxGeometry x="585.5" y="-149" width="20" height="20" as="geometry" />
        </mxCell>
        <mxCell id="WlIdeiedV5WxPYd-yGUF-32" value="" style="shape=waypoint;sketch=0;fillStyle=solid;size=6;pointerEvents=1;points=[];fillColor=none;resizable=0;rotatable=0;perimeter=centerPerimeter;snapToPoint=1;" parent="1" vertex="1">
          <mxGeometry x="645.5" y="-149" width="20" height="20" as="geometry" />
        </mxCell>
        <mxCell id="WlIdeiedV5WxPYd-yGUF-33" value="" style="shape=waypoint;sketch=0;fillStyle=solid;size=6;pointerEvents=1;points=[];fillColor=none;resizable=0;rotatable=0;perimeter=centerPerimeter;snapToPoint=1;" parent="1" vertex="1">
          <mxGeometry x="705.5" y="-149" width="20" height="20" as="geometry" />
        </mxCell>
        <mxCell id="WlIdeiedV5WxPYd-yGUF-34" value="" style="shape=waypoint;sketch=0;fillStyle=solid;size=6;pointerEvents=1;points=[];fillColor=none;resizable=0;rotatable=0;perimeter=centerPerimeter;snapToPoint=1;" parent="1" vertex="1">
          <mxGeometry x="765.5" y="-149" width="20" height="20" as="geometry" />
        </mxCell>
        <mxCell id="WlIdeiedV5WxPYd-yGUF-35" value="" style="shape=waypoint;sketch=0;fillStyle=solid;size=6;pointerEvents=1;points=[];fillColor=none;resizable=0;rotatable=0;perimeter=centerPerimeter;snapToPoint=1;" parent="1" vertex="1">
          <mxGeometry x="808" y="-149" width="20" height="20" as="geometry" />
        </mxCell>
        <mxCell id="WlIdeiedV5WxPYd-yGUF-36" value="" style="shape=waypoint;sketch=0;fillStyle=solid;size=6;pointerEvents=1;points=[];fillColor=none;resizable=0;rotatable=0;perimeter=centerPerimeter;snapToPoint=1;" parent="1" vertex="1">
          <mxGeometry x="905.5" y="-149" width="20" height="20" as="geometry" />
        </mxCell>
        <mxCell id="WlIdeiedV5WxPYd-yGUF-37" value="" style="shape=waypoint;sketch=0;fillStyle=solid;size=6;pointerEvents=1;points=[];fillColor=none;resizable=0;rotatable=0;perimeter=centerPerimeter;snapToPoint=1;" parent="1" vertex="1">
          <mxGeometry x="955.5" y="-149" width="20" height="20" as="geometry" />
        </mxCell>
        <mxCell id="WlIdeiedV5WxPYd-yGUF-38" value="" style="shape=waypoint;sketch=0;fillStyle=solid;size=6;pointerEvents=1;points=[];fillColor=none;resizable=0;rotatable=0;perimeter=centerPerimeter;snapToPoint=1;" parent="1" vertex="1">
          <mxGeometry x="1005.5" y="-149" width="20" height="20" as="geometry" />
        </mxCell>
        <mxCell id="WlIdeiedV5WxPYd-yGUF-39" value="" style="shape=waypoint;sketch=0;fillStyle=solid;size=6;pointerEvents=1;points=[];fillColor=none;resizable=0;rotatable=0;perimeter=centerPerimeter;snapToPoint=1;" parent="1" vertex="1">
          <mxGeometry x="1055.5" y="-149" width="20" height="20" as="geometry" />
        </mxCell>
        <mxCell id="WlIdeiedV5WxPYd-yGUF-40" value="" style="shape=waypoint;sketch=0;fillStyle=solid;size=6;pointerEvents=1;points=[];fillColor=none;resizable=0;rotatable=0;perimeter=centerPerimeter;snapToPoint=1;" parent="1" vertex="1">
          <mxGeometry x="1105.5" y="-149" width="20" height="20" as="geometry" />
        </mxCell>
        <mxCell id="WlIdeiedV5WxPYd-yGUF-41" value="1" style="text;html=1;align=center;verticalAlign=middle;resizable=0;points=[];autosize=1;strokeColor=none;fillColor=none;" parent="1" vertex="1">
          <mxGeometry x="563.5" y="-153" width="30" height="30" as="geometry" />
        </mxCell>
        <mxCell id="WlIdeiedV5WxPYd-yGUF-42" value="a00" style="text;html=1;align=center;verticalAlign=middle;resizable=0;points=[];autosize=1;strokeColor=none;fillColor=none;" parent="1" vertex="1">
          <mxGeometry x="618.5" y="-160" width="40" height="30" as="geometry" />
        </mxCell>
        <mxCell id="WlIdeiedV5WxPYd-yGUF-43" value="b00" style="text;html=1;align=center;verticalAlign=middle;resizable=0;points=[];autosize=1;strokeColor=none;fillColor=none;" parent="1" vertex="1">
          <mxGeometry x="680" y="-153" width="40" height="30" as="geometry" />
        </mxCell>
        <mxCell id="WlIdeiedV5WxPYd-yGUF-44" value="1" style="text;html=1;align=center;verticalAlign=middle;resizable=0;points=[];autosize=1;strokeColor=none;fillColor=none;" parent="1" vertex="1">
          <mxGeometry x="743.5" y="-153" width="30" height="30" as="geometry" />
        </mxCell>
        <mxCell id="WlIdeiedV5WxPYd-yGUF-45" value="e0" style="text;html=1;align=center;verticalAlign=middle;resizable=0;points=[];autosize=1;strokeColor=none;fillColor=none;" parent="1" vertex="1">
          <mxGeometry x="781" y="-153" width="40" height="30" as="geometry" />
        </mxCell>
        <mxCell id="WlIdeiedV5WxPYd-yGUF-46" value="1" style="text;html=1;align=center;verticalAlign=middle;resizable=0;points=[];autosize=1;strokeColor=none;fillColor=none;" parent="1" vertex="1">
          <mxGeometry x="883.5" y="-153" width="30" height="30" as="geometry" />
        </mxCell>
        <mxCell id="WlIdeiedV5WxPYd-yGUF-47" value="a01" style="text;html=1;align=center;verticalAlign=middle;resizable=0;points=[];autosize=1;strokeColor=none;fillColor=none;" parent="1" vertex="1">
          <mxGeometry x="928.5" y="-153" width="40" height="30" as="geometry" />
        </mxCell>
        <mxCell id="WlIdeiedV5WxPYd-yGUF-48" value="b10" style="text;html=1;align=center;verticalAlign=middle;resizable=0;points=[];autosize=1;strokeColor=none;fillColor=none;" parent="1" vertex="1">
          <mxGeometry x="978.5" y="-153" width="40" height="30" as="geometry" />
        </mxCell>
        <mxCell id="WlIdeiedV5WxPYd-yGUF-49" value="1" style="text;html=1;align=center;verticalAlign=middle;resizable=0;points=[];autosize=1;strokeColor=none;fillColor=none;" parent="1" vertex="1">
          <mxGeometry x="1033.5" y="-153" width="30" height="30" as="geometry" />
        </mxCell>
        <mxCell id="WlIdeiedV5WxPYd-yGUF-50" value="e1" style="text;html=1;align=center;verticalAlign=middle;resizable=0;points=[];autosize=1;strokeColor=none;fillColor=none;" parent="1" vertex="1">
          <mxGeometry x="1078.5" y="-153" width="40" height="30" as="geometry" />
        </mxCell>
        <mxCell id="WlIdeiedV5WxPYd-yGUF-51" value="" style="ellipse;whiteSpace=wrap;html=1;aspect=fixed;" parent="1" vertex="1">
          <mxGeometry x="541" y="-39" width="20" height="20" as="geometry" />
        </mxCell>
        <mxCell id="WlIdeiedV5WxPYd-yGUF-52" value="" style="ellipse;whiteSpace=wrap;html=1;aspect=fixed;" parent="1" vertex="1">
          <mxGeometry x="706" y="-42.96000000000001" width="20" height="20" as="geometry" />
        </mxCell>
        <mxCell id="WlIdeiedV5WxPYd-yGUF-53" value="" style="ellipse;whiteSpace=wrap;html=1;aspect=fixed;" parent="1" vertex="1">
          <mxGeometry x="773.5" y="-44" width="20" height="20" as="geometry" />
        </mxCell>
        <mxCell id="WlIdeiedV5WxPYd-yGUF-54" value="" style="ellipse;whiteSpace=wrap;html=1;aspect=fixed;" parent="1" vertex="1">
          <mxGeometry x="901" y="-39" width="20" height="20" as="geometry" />
        </mxCell>
        <mxCell id="WlIdeiedV5WxPYd-yGUF-55" value="" style="ellipse;whiteSpace=wrap;html=1;aspect=fixed;" parent="1" vertex="1">
          <mxGeometry x="1030" y="-44" width="20" height="20" as="geometry" />
        </mxCell>
        <mxCell id="WlIdeiedV5WxPYd-yGUF-56" value="" style="ellipse;whiteSpace=wrap;html=1;aspect=fixed;" parent="1" vertex="1">
          <mxGeometry x="1090" y="-42.96000000000001" width="20" height="20" as="geometry" />
        </mxCell>
        <mxCell id="WlIdeiedV5WxPYd-yGUF-57" value="" style="shape=waypoint;sketch=0;fillStyle=solid;size=6;pointerEvents=1;points=[];fillColor=none;resizable=0;rotatable=0;perimeter=centerPerimeter;snapToPoint=1;" parent="1" vertex="1">
          <mxGeometry x="394.5" y="-149" width="20" height="20" as="geometry" />
        </mxCell>
        <mxCell id="WlIdeiedV5WxPYd-yGUF-58" value="1" style="text;html=1;align=center;verticalAlign=middle;resizable=0;points=[];autosize=1;strokeColor=none;fillColor=none;" parent="1" vertex="1">
          <mxGeometry x="376" y="-154" width="30" height="30" as="geometry" />
        </mxCell>
        <mxCell id="WlIdeiedV5WxPYd-yGUF-60" value="" style="endArrow=classic;html=1;rounded=0;exitX=0.767;exitY=0.869;exitDx=0;exitDy=0;exitPerimeter=0;entryX=0;entryY=0;entryDx=0;entryDy=0;" parent="1" source="WlIdeiedV5WxPYd-yGUF-11" target="WlIdeiedV5WxPYd-yGUF-9" edge="1">
          <mxGeometry width="50" height="50" relative="1" as="geometry">
            <mxPoint x="251" y="-19" as="sourcePoint" />
            <mxPoint x="301" y="-69" as="targetPoint" />
          </mxGeometry>
        </mxCell>
        <mxCell id="WlIdeiedV5WxPYd-yGUF-61" value="" style="endArrow=classic;html=1;rounded=0;exitX=0.677;exitY=0.818;exitDx=0;exitDy=0;exitPerimeter=0;entryX=1;entryY=0;entryDx=0;entryDy=0;" parent="1" source="WlIdeiedV5WxPYd-yGUF-12" target="WlIdeiedV5WxPYd-yGUF-9" edge="1">
          <mxGeometry width="50" height="50" relative="1" as="geometry">
            <mxPoint x="251" y="-19" as="sourcePoint" />
            <mxPoint x="301" y="-69" as="targetPoint" />
          </mxGeometry>
        </mxCell>
        <mxCell id="WlIdeiedV5WxPYd-yGUF-62" value="" style="endArrow=classic;html=1;rounded=0;exitX=0.382;exitY=0.715;exitDx=0;exitDy=0;exitPerimeter=0;entryX=1;entryY=0;entryDx=0;entryDy=0;" parent="1" source="WlIdeiedV5WxPYd-yGUF-57" target="WlIdeiedV5WxPYd-yGUF-16" edge="1">
          <mxGeometry width="50" height="50" relative="1" as="geometry">
            <mxPoint x="331" y="-19" as="sourcePoint" />
            <mxPoint x="381" y="-69" as="targetPoint" />
          </mxGeometry>
        </mxCell>
        <mxCell id="WlIdeiedV5WxPYd-yGUF-63" value="" style="endArrow=classic;html=1;rounded=0;exitX=0.792;exitY=0.767;exitDx=0;exitDy=0;exitPerimeter=0;entryX=0;entryY=0;entryDx=0;entryDy=0;" parent="1" source="WlIdeiedV5WxPYd-yGUF-57" target="WlIdeiedV5WxPYd-yGUF-17" edge="1">
          <mxGeometry width="50" height="50" relative="1" as="geometry">
            <mxPoint x="331" y="-19" as="sourcePoint" />
            <mxPoint x="381" y="-69" as="targetPoint" />
          </mxGeometry>
        </mxCell>
        <mxCell id="WlIdeiedV5WxPYd-yGUF-65" value="" style="endArrow=classic;html=1;rounded=0;exitX=0.587;exitY=0.869;exitDx=0;exitDy=0;exitPerimeter=0;entryX=0;entryY=0;entryDx=0;entryDy=0;" parent="1" source="WlIdeiedV5WxPYd-yGUF-20" target="WlIdeiedV5WxPYd-yGUF-19" edge="1">
          <mxGeometry width="50" height="50" relative="1" as="geometry">
            <mxPoint x="331" y="-19" as="sourcePoint" />
            <mxPoint x="381" y="-69" as="targetPoint" />
          </mxGeometry>
        </mxCell>
        <mxCell id="WlIdeiedV5WxPYd-yGUF-67" value="" style="endArrow=classic;html=1;rounded=0;exitX=0.638;exitY=0.767;exitDx=0;exitDy=0;exitPerimeter=0;entryX=1;entryY=0;entryDx=0;entryDy=0;" parent="1" source="WlIdeiedV5WxPYd-yGUF-21" target="WlIdeiedV5WxPYd-yGUF-19" edge="1">
          <mxGeometry width="50" height="50" relative="1" as="geometry">
            <mxPoint x="331" y="-19" as="sourcePoint" />
            <mxPoint x="381" y="-69" as="targetPoint" />
          </mxGeometry>
        </mxCell>
        <mxCell id="WlIdeiedV5WxPYd-yGUF-68" value="" style="endArrow=classic;html=1;rounded=0;exitX=0.5;exitY=1;exitDx=0;exitDy=0;entryX=0;entryY=0;entryDx=0;entryDy=0;" parent="1" source="WlIdeiedV5WxPYd-yGUF-9" target="WlIdeiedV5WxPYd-yGUF-16" edge="1">
          <mxGeometry width="50" height="50" relative="1" as="geometry">
            <mxPoint x="331" y="-19" as="sourcePoint" />
            <mxPoint x="381" y="-69" as="targetPoint" />
          </mxGeometry>
        </mxCell>
        <mxCell id="WlIdeiedV5WxPYd-yGUF-69" value="" style="endArrow=classic;html=1;rounded=0;exitX=0.5;exitY=1;exitDx=0;exitDy=0;entryX=1;entryY=0;entryDx=0;entryDy=0;" parent="1" source="WlIdeiedV5WxPYd-yGUF-19" target="WlIdeiedV5WxPYd-yGUF-17" edge="1">
          <mxGeometry width="50" height="50" relative="1" as="geometry">
            <mxPoint x="331" y="-19" as="sourcePoint" />
            <mxPoint x="381" y="-69" as="targetPoint" />
          </mxGeometry>
        </mxCell>
        <mxCell id="WlIdeiedV5WxPYd-yGUF-70" value="" style="endArrow=classic;html=1;rounded=0;exitX=0.5;exitY=1;exitDx=0;exitDy=0;entryX=0;entryY=0;entryDx=0;entryDy=0;" parent="1" source="WlIdeiedV5WxPYd-yGUF-16" target="WlIdeiedV5WxPYd-yGUF-18" edge="1">
          <mxGeometry width="50" height="50" relative="1" as="geometry">
            <mxPoint x="330" y="190" as="sourcePoint" />
            <mxPoint x="380" y="140" as="targetPoint" />
          </mxGeometry>
        </mxCell>
        <mxCell id="WlIdeiedV5WxPYd-yGUF-71" value="" style="endArrow=classic;html=1;rounded=0;exitX=0;exitY=1;exitDx=0;exitDy=0;entryX=1;entryY=0;entryDx=0;entryDy=0;" parent="1" source="WlIdeiedV5WxPYd-yGUF-17" target="WlIdeiedV5WxPYd-yGUF-18" edge="1">
          <mxGeometry width="50" height="50" relative="1" as="geometry">
            <mxPoint x="330" y="190" as="sourcePoint" />
            <mxPoint x="380" y="140" as="targetPoint" />
          </mxGeometry>
        </mxCell>
        <mxCell id="WlIdeiedV5WxPYd-yGUF-72" value="" style="endArrow=classic;html=1;rounded=0;exitX=0.5;exitY=1;exitDx=0;exitDy=0;entryX=0.5;entryY=0;entryDx=0;entryDy=0;" parent="1" source="WlIdeiedV5WxPYd-yGUF-18" target="WlIdeiedV5WxPYd-yGUF-26" edge="1">
          <mxGeometry width="50" height="50" relative="1" as="geometry">
            <mxPoint x="320" y="420" as="sourcePoint" />
            <mxPoint x="370" y="370" as="targetPoint" />
          </mxGeometry>
        </mxCell>
        <mxCell id="WlIdeiedV5WxPYd-yGUF-73" value="" style="endArrow=classic;html=1;rounded=0;exitX=0.613;exitY=0.703;exitDx=0;exitDy=0;exitPerimeter=0;entryX=0;entryY=0;entryDx=0;entryDy=0;" parent="1" source="WlIdeiedV5WxPYd-yGUF-25" target="WlIdeiedV5WxPYd-yGUF-26" edge="1">
          <mxGeometry width="50" height="50" relative="1" as="geometry">
            <mxPoint x="345" y="110" as="sourcePoint" />
            <mxPoint x="395" y="60" as="targetPoint" />
          </mxGeometry>
        </mxCell>
        <mxCell id="WlIdeiedV5WxPYd-yGUF-74" value="" style="endArrow=classic;html=1;rounded=0;entryX=0;entryY=0;entryDx=0;entryDy=0;" parent="1" source="WlIdeiedV5WxPYd-yGUF-31" target="WlIdeiedV5WxPYd-yGUF-51" edge="1">
          <mxGeometry width="50" height="50" relative="1" as="geometry">
            <mxPoint x="671" y="-69" as="sourcePoint" />
            <mxPoint x="721" y="-119" as="targetPoint" />
          </mxGeometry>
        </mxCell>
        <mxCell id="WlIdeiedV5WxPYd-yGUF-75" value="" style="endArrow=classic;html=1;rounded=0;exitX=0.5;exitY=1;exitDx=0;exitDy=0;entryX=0.5;entryY=0;entryDx=0;entryDy=0;" parent="1" source="WlIdeiedV5WxPYd-yGUF-51" target="iML82PHEN0vILoig2JXb-2" edge="1">
          <mxGeometry width="50" height="50" relative="1" as="geometry">
            <mxPoint x="670" y="140" as="sourcePoint" />
            <mxPoint x="720" y="90" as="targetPoint" />
          </mxGeometry>
        </mxCell>
        <mxCell id="WlIdeiedV5WxPYd-yGUF-78" value="" style="endArrow=classic;html=1;rounded=0;exitX=0.688;exitY=0.8;exitDx=0;exitDy=0;exitPerimeter=0;entryX=0;entryY=0;entryDx=0;entryDy=0;" parent="1" source="WlIdeiedV5WxPYd-yGUF-34" target="WlIdeiedV5WxPYd-yGUF-53" edge="1">
          <mxGeometry width="50" height="50" relative="1" as="geometry">
            <mxPoint x="671" y="-69" as="sourcePoint" />
            <mxPoint x="721" y="-119" as="targetPoint" />
          </mxGeometry>
        </mxCell>
        <mxCell id="WlIdeiedV5WxPYd-yGUF-79" value="" style="endArrow=classic;html=1;rounded=0;exitX=0.54;exitY=0.773;exitDx=0;exitDy=0;exitPerimeter=0;entryX=1;entryY=0;entryDx=0;entryDy=0;" parent="1" source="WlIdeiedV5WxPYd-yGUF-35" target="WlIdeiedV5WxPYd-yGUF-53" edge="1">
          <mxGeometry width="50" height="50" relative="1" as="geometry">
            <mxPoint x="671" y="-69" as="sourcePoint" />
            <mxPoint x="721" y="-119" as="targetPoint" />
          </mxGeometry>
        </mxCell>
        <mxCell id="WlIdeiedV5WxPYd-yGUF-80" value="" style="endArrow=classic;html=1;rounded=0;exitX=0.526;exitY=0.773;exitDx=0;exitDy=0;exitPerimeter=0;entryX=1;entryY=0;entryDx=0;entryDy=0;" parent="1" source="WlIdeiedV5WxPYd-yGUF-34" target="WlIdeiedV5WxPYd-yGUF-52" edge="1">
          <mxGeometry width="50" height="50" relative="1" as="geometry">
            <mxPoint x="671" y="-69" as="sourcePoint" />
            <mxPoint x="721" y="-119" as="targetPoint" />
          </mxGeometry>
        </mxCell>
        <mxCell id="WlIdeiedV5WxPYd-yGUF-81" value="" style="endArrow=classic;html=1;rounded=0;exitX=0.54;exitY=0.8;exitDx=0;exitDy=0;exitPerimeter=0;entryX=0;entryY=0;entryDx=0;entryDy=0;" parent="1" source="WlIdeiedV5WxPYd-yGUF-33" target="WlIdeiedV5WxPYd-yGUF-52" edge="1">
          <mxGeometry width="50" height="50" relative="1" as="geometry">
            <mxPoint x="641" y="-69" as="sourcePoint" />
            <mxPoint x="721" y="-119" as="targetPoint" />
          </mxGeometry>
        </mxCell>
        <mxCell id="WlIdeiedV5WxPYd-yGUF-82" value="" style="endArrow=classic;html=1;rounded=0;exitX=0.126;exitY=1.177;exitDx=0;exitDy=0;exitPerimeter=0;entryX=1;entryY=0;entryDx=0;entryDy=0;" parent="1" source="WlIdeiedV5WxPYd-yGUF-32" target="WlIdeiedV5WxPYd-yGUF-51" edge="1">
          <mxGeometry width="50" height="50" relative="1" as="geometry">
            <mxPoint x="671" y="-69" as="sourcePoint" />
            <mxPoint x="721" y="-119" as="targetPoint" />
          </mxGeometry>
        </mxCell>
        <mxCell id="WlIdeiedV5WxPYd-yGUF-83" value="" style="ellipse;whiteSpace=wrap;html=1;aspect=fixed;" parent="1" vertex="1">
          <mxGeometry x="671" y="379" width="20" height="20" as="geometry" />
        </mxCell>
        <mxCell id="WlIdeiedV5WxPYd-yGUF-84" value="" style="ellipse;whiteSpace=wrap;html=1;aspect=fixed;" parent="1" vertex="1">
          <mxGeometry x="815" y="235" width="20" height="20" as="geometry" />
        </mxCell>
        <mxCell id="WlIdeiedV5WxPYd-yGUF-85" value="" style="shape=waypoint;sketch=0;fillStyle=solid;size=6;pointerEvents=1;points=[];fillColor=none;resizable=0;rotatable=0;perimeter=centerPerimeter;snapToPoint=1;" parent="1" vertex="1">
          <mxGeometry x="850" y="201.04" width="20" height="20" as="geometry" />
        </mxCell>
        <mxCell id="WlIdeiedV5WxPYd-yGUF-86" value="2" style="text;html=1;align=center;verticalAlign=middle;resizable=0;points=[];autosize=1;strokeColor=none;fillColor=none;" parent="1" vertex="1">
          <mxGeometry x="835" y="196.04" width="30" height="30" as="geometry" />
        </mxCell>
        <mxCell id="WlIdeiedV5WxPYd-yGUF-87" value="" style="shape=waypoint;sketch=0;fillStyle=solid;size=6;pointerEvents=1;points=[];fillColor=none;resizable=0;rotatable=0;perimeter=centerPerimeter;snapToPoint=1;" parent="1" vertex="1">
          <mxGeometry x="1070" y="201.04" width="20" height="20" as="geometry" />
        </mxCell>
        <mxCell id="WlIdeiedV5WxPYd-yGUF-88" value="2" style="text;html=1;align=center;verticalAlign=middle;resizable=0;points=[];autosize=1;strokeColor=none;fillColor=none;" parent="1" vertex="1">
          <mxGeometry x="1055" y="196.04" width="30" height="30" as="geometry" />
        </mxCell>
        <mxCell id="WlIdeiedV5WxPYd-yGUF-89" value="" style="ellipse;whiteSpace=wrap;html=1;aspect=fixed;" parent="1" vertex="1">
          <mxGeometry x="1130" y="240" width="20" height="20" as="geometry" />
        </mxCell>
        <mxCell id="WlIdeiedV5WxPYd-yGUF-90" value="" style="ellipse;whiteSpace=wrap;html=1;aspect=fixed;" parent="1" vertex="1">
          <mxGeometry x="970" y="374" width="20" height="20" as="geometry" />
        </mxCell>
        <mxCell id="WlIdeiedV5WxPYd-yGUF-91" value="" style="ellipse;whiteSpace=wrap;html=1;aspect=fixed;" parent="1" vertex="1">
          <mxGeometry x="1090" y="374" width="20" height="20" as="geometry" />
        </mxCell>
        <mxCell id="WlIdeiedV5WxPYd-yGUF-92" value="" style="ellipse;whiteSpace=wrap;html=1;aspect=fixed;" parent="1" vertex="1">
          <mxGeometry x="935" y="444" width="20" height="20" as="geometry" />
        </mxCell>
        <mxCell id="WlIdeiedV5WxPYd-yGUF-93" value="" style="ellipse;whiteSpace=wrap;html=1;aspect=fixed;" parent="1" vertex="1">
          <mxGeometry x="970" y="519" width="20" height="20" as="geometry" />
        </mxCell>
        <mxCell id="WlIdeiedV5WxPYd-yGUF-94" value="" style="ellipse;whiteSpace=wrap;html=1;aspect=fixed;" parent="1" vertex="1">
          <mxGeometry x="795" y="519" width="20" height="20" as="geometry" />
        </mxCell>
        <mxCell id="WlIdeiedV5WxPYd-yGUF-95" value="" style="shape=waypoint;sketch=0;fillStyle=solid;size=6;pointerEvents=1;points=[];fillColor=none;resizable=0;rotatable=0;perimeter=centerPerimeter;snapToPoint=1;" parent="1" vertex="1">
          <mxGeometry x="865" y="409" width="20" height="20" as="geometry" />
        </mxCell>
        <mxCell id="WlIdeiedV5WxPYd-yGUF-96" value="4" style="text;html=1;align=center;verticalAlign=middle;resizable=0;points=[];autosize=1;strokeColor=none;fillColor=none;" parent="1" vertex="1">
          <mxGeometry x="847" y="404" width="30" height="30" as="geometry" />
        </mxCell>
        <mxCell id="WlIdeiedV5WxPYd-yGUF-97" value="" style="shape=waypoint;sketch=0;fillStyle=solid;size=6;pointerEvents=1;points=[];fillColor=none;resizable=0;rotatable=0;perimeter=centerPerimeter;snapToPoint=1;" parent="1" vertex="1">
          <mxGeometry x="880" y="479" width="20" height="20" as="geometry" />
        </mxCell>
        <mxCell id="WlIdeiedV5WxPYd-yGUF-98" value="2" style="text;html=1;align=center;verticalAlign=middle;resizable=0;points=[];autosize=1;strokeColor=none;fillColor=none;" parent="1" vertex="1">
          <mxGeometry x="860" y="474" width="30" height="30" as="geometry" />
        </mxCell>
        <mxCell id="WlIdeiedV5WxPYd-yGUF-99" value="" style="shape=waypoint;sketch=0;fillStyle=solid;size=6;pointerEvents=1;points=[];fillColor=none;resizable=0;rotatable=0;perimeter=centerPerimeter;snapToPoint=1;" parent="1" vertex="1">
          <mxGeometry x="760" y="479" width="20" height="20" as="geometry" />
        </mxCell>
        <mxCell id="WlIdeiedV5WxPYd-yGUF-100" value="1" style="text;html=1;align=center;verticalAlign=middle;resizable=0;points=[];autosize=1;strokeColor=none;fillColor=none;" parent="1" vertex="1">
          <mxGeometry x="745" y="474" width="30" height="30" as="geometry" />
        </mxCell>
        <mxCell id="WlIdeiedV5WxPYd-yGUF-101" value="" style="shape=waypoint;sketch=0;fillStyle=solid;size=6;pointerEvents=1;points=[];fillColor=none;resizable=0;rotatable=0;perimeter=centerPerimeter;snapToPoint=1;" parent="1" vertex="1">
          <mxGeometry x="580" y="479" width="20" height="20" as="geometry" />
        </mxCell>
        <mxCell id="WlIdeiedV5WxPYd-yGUF-102" value="2" style="text;html=1;align=center;verticalAlign=middle;resizable=0;points=[];autosize=1;strokeColor=none;fillColor=none;" parent="1" vertex="1">
          <mxGeometry x="560" y="474" width="30" height="30" as="geometry" />
        </mxCell>
        <mxCell id="WlIdeiedV5WxPYd-yGUF-103" value="" style="ellipse;whiteSpace=wrap;html=1;aspect=fixed;" parent="1" vertex="1">
          <mxGeometry x="520" y="514" width="20" height="20" as="geometry" />
        </mxCell>
        <mxCell id="WlIdeiedV5WxPYd-yGUF-104" value="" style="ellipse;whiteSpace=wrap;html=1;aspect=fixed;" parent="1" vertex="1">
          <mxGeometry x="560" y="584" width="20" height="20" as="geometry" />
        </mxCell>
        <mxCell id="WlIdeiedV5WxPYd-yGUF-105" value="" style="ellipse;whiteSpace=wrap;html=1;aspect=fixed;" parent="1" vertex="1">
          <mxGeometry x="780" y="586.5" width="20" height="20" as="geometry" />
        </mxCell>
        <mxCell id="WlIdeiedV5WxPYd-yGUF-106" value="" style="ellipse;whiteSpace=wrap;html=1;aspect=fixed;" parent="1" vertex="1">
          <mxGeometry x="772.5" y="654" width="20" height="20" as="geometry" />
        </mxCell>
        <mxCell id="WlIdeiedV5WxPYd-yGUF-107" value="" style="ellipse;whiteSpace=wrap;html=1;aspect=fixed;" parent="1" vertex="1">
          <mxGeometry x="972" y="589" width="20" height="20" as="geometry" />
        </mxCell>
        <mxCell id="WlIdeiedV5WxPYd-yGUF-108" value="" style="ellipse;whiteSpace=wrap;html=1;aspect=fixed;" parent="1" vertex="1">
          <mxGeometry x="1170" y="589" width="20" height="20" as="geometry" />
        </mxCell>
        <mxCell id="WlIdeiedV5WxPYd-yGUF-109" value="" style="ellipse;whiteSpace=wrap;html=1;aspect=fixed;" parent="1" vertex="1">
          <mxGeometry x="1130" y="514" width="20" height="20" as="geometry" />
        </mxCell>
        <mxCell id="WlIdeiedV5WxPYd-yGUF-110" value="" style="shape=waypoint;sketch=0;fillStyle=solid;size=6;pointerEvents=1;points=[];fillColor=none;resizable=0;rotatable=0;perimeter=centerPerimeter;snapToPoint=1;" parent="1" vertex="1">
          <mxGeometry x="1100" y="479" width="20" height="20" as="geometry" />
        </mxCell>
        <mxCell id="WlIdeiedV5WxPYd-yGUF-111" value="1" style="text;html=1;align=center;verticalAlign=middle;resizable=0;points=[];autosize=1;strokeColor=none;fillColor=none;" parent="1" vertex="1">
          <mxGeometry x="1080" y="474" width="30" height="30" as="geometry" />
        </mxCell>
        <mxCell id="WlIdeiedV5WxPYd-yGUF-112" value="" style="endArrow=classic;html=1;rounded=0;exitX=0.5;exitY=1;exitDx=0;exitDy=0;entryX=0.5;entryY=0;entryDx=0;entryDy=0;" parent="1" source="WlIdeiedV5WxPYd-yGUF-109" target="WlIdeiedV5WxPYd-yGUF-108" edge="1">
          <mxGeometry width="50" height="50" relative="1" as="geometry">
            <mxPoint x="920" y="389" as="sourcePoint" />
            <mxPoint x="970" y="339" as="targetPoint" />
          </mxGeometry>
        </mxCell>
        <mxCell id="WlIdeiedV5WxPYd-yGUF-113" value="" style="endArrow=classic;html=1;rounded=0;exitX=0.8;exitY=0.563;exitDx=0;exitDy=0;exitPerimeter=0;entryX=0;entryY=0;entryDx=0;entryDy=0;" parent="1" source="WlIdeiedV5WxPYd-yGUF-110" target="WlIdeiedV5WxPYd-yGUF-109" edge="1">
          <mxGeometry width="50" height="50" relative="1" as="geometry">
            <mxPoint x="920" y="354" as="sourcePoint" />
            <mxPoint x="970" y="304" as="targetPoint" />
          </mxGeometry>
        </mxCell>
        <mxCell id="WlIdeiedV5WxPYd-yGUF-114" value="" style="endArrow=classic;html=1;rounded=0;exitX=1;exitY=1;exitDx=0;exitDy=0;entryX=0;entryY=0;entryDx=0;entryDy=0;" parent="1" source="WlIdeiedV5WxPYd-yGUF-93" target="WlIdeiedV5WxPYd-yGUF-107" edge="1">
          <mxGeometry width="50" height="50" relative="1" as="geometry">
            <mxPoint x="920" y="389" as="sourcePoint" />
            <mxPoint x="970" y="339" as="targetPoint" />
          </mxGeometry>
        </mxCell>
        <mxCell id="WlIdeiedV5WxPYd-yGUF-115" value="" style="endArrow=classic;html=1;rounded=0;exitX=1.175;exitY=0.979;exitDx=0;exitDy=0;exitPerimeter=0;entryX=0;entryY=0;entryDx=0;entryDy=0;" parent="1" source="WlIdeiedV5WxPYd-yGUF-97" target="WlIdeiedV5WxPYd-yGUF-93" edge="1">
          <mxGeometry width="50" height="50" relative="1" as="geometry">
            <mxPoint x="920" y="354" as="sourcePoint" />
            <mxPoint x="970" y="304" as="targetPoint" />
          </mxGeometry>
        </mxCell>
        <mxCell id="WlIdeiedV5WxPYd-yGUF-116" value="" style="endArrow=classic;html=1;rounded=0;entryX=0;entryY=0;entryDx=0;entryDy=0;" parent="1" source="WlIdeiedV5WxPYd-yGUF-95" target="WlIdeiedV5WxPYd-yGUF-92" edge="1">
          <mxGeometry width="50" height="50" relative="1" as="geometry">
            <mxPoint x="875" y="414" as="sourcePoint" />
            <mxPoint x="970" y="339" as="targetPoint" />
          </mxGeometry>
        </mxCell>
        <mxCell id="WlIdeiedV5WxPYd-yGUF-117" value="" style="endArrow=classic;html=1;rounded=0;exitX=0.5;exitY=1;exitDx=0;exitDy=0;entryX=0.5;entryY=0;entryDx=0;entryDy=0;" parent="1" source="WlIdeiedV5WxPYd-yGUF-92" target="WlIdeiedV5WxPYd-yGUF-93" edge="1">
          <mxGeometry width="50" height="50" relative="1" as="geometry">
            <mxPoint x="920" y="389" as="sourcePoint" />
            <mxPoint x="970" y="339" as="targetPoint" />
          </mxGeometry>
        </mxCell>
        <mxCell id="WlIdeiedV5WxPYd-yGUF-118" value="" style="endArrow=classic;html=1;rounded=0;exitX=0.5;exitY=1;exitDx=0;exitDy=0;entryX=0.5;entryY=0;entryDx=0;entryDy=0;" parent="1" source="WlIdeiedV5WxPYd-yGUF-90" target="WlIdeiedV5WxPYd-yGUF-92" edge="1">
          <mxGeometry width="50" height="50" relative="1" as="geometry">
            <mxPoint x="920" y="389" as="sourcePoint" />
            <mxPoint x="970" y="339" as="targetPoint" />
          </mxGeometry>
        </mxCell>
        <mxCell id="WlIdeiedV5WxPYd-yGUF-119" value="" style="endArrow=classic;html=1;rounded=0;exitX=0.5;exitY=1;exitDx=0;exitDy=0;entryX=0.5;entryY=0;entryDx=0;entryDy=0;" parent="1" source="WlIdeiedV5WxPYd-yGUF-94" target="WlIdeiedV5WxPYd-yGUF-105" edge="1">
          <mxGeometry width="50" height="50" relative="1" as="geometry">
            <mxPoint x="920" y="389" as="sourcePoint" />
            <mxPoint x="970" y="339" as="targetPoint" />
          </mxGeometry>
        </mxCell>
        <mxCell id="WlIdeiedV5WxPYd-yGUF-120" value="" style="endArrow=classic;html=1;rounded=0;entryX=0;entryY=0;entryDx=0;entryDy=0;exitX=1.074;exitY=0.539;exitDx=0;exitDy=0;exitPerimeter=0;" parent="1" source="WlIdeiedV5WxPYd-yGUF-99" target="WlIdeiedV5WxPYd-yGUF-94" edge="1">
          <mxGeometry width="50" height="50" relative="1" as="geometry">
            <mxPoint x="770" y="489" as="sourcePoint" />
            <mxPoint x="970" y="304" as="targetPoint" />
          </mxGeometry>
        </mxCell>
        <mxCell id="WlIdeiedV5WxPYd-yGUF-121" value="" style="endArrow=classic;html=1;rounded=0;exitX=1;exitY=1;exitDx=0;exitDy=0;entryX=0;entryY=0;entryDx=0;entryDy=0;" parent="1" source="WlIdeiedV5WxPYd-yGUF-27" target="WlIdeiedV5WxPYd-yGUF-105" edge="1">
          <mxGeometry width="50" height="50" relative="1" as="geometry">
            <mxPoint x="920" y="389" as="sourcePoint" />
            <mxPoint x="970" y="339" as="targetPoint" />
          </mxGeometry>
        </mxCell>
        <mxCell id="WlIdeiedV5WxPYd-yGUF-122" value="" style="endArrow=classic;html=1;rounded=0;exitX=0.683;exitY=0.979;exitDx=0;exitDy=0;entryX=1;entryY=0;entryDx=0;entryDy=0;exitPerimeter=0;" parent="1" source="WlIdeiedV5WxPYd-yGUF-105" target="WlIdeiedV5WxPYd-yGUF-106" edge="1">
          <mxGeometry width="50" height="50" relative="1" as="geometry">
            <mxPoint x="920" y="389" as="sourcePoint" />
            <mxPoint x="970" y="339" as="targetPoint" />
          </mxGeometry>
        </mxCell>
        <mxCell id="WlIdeiedV5WxPYd-yGUF-123" value="" style="endArrow=classic;html=1;rounded=0;exitX=1;exitY=1;exitDx=0;exitDy=0;entryX=0;entryY=0;entryDx=0;entryDy=0;" parent="1" source="WlIdeiedV5WxPYd-yGUF-103" target="WlIdeiedV5WxPYd-yGUF-104" edge="1">
          <mxGeometry width="50" height="50" relative="1" as="geometry">
            <mxPoint x="920" y="389" as="sourcePoint" />
            <mxPoint x="970" y="339" as="targetPoint" />
          </mxGeometry>
        </mxCell>
        <mxCell id="WlIdeiedV5WxPYd-yGUF-124" value="" style="endArrow=classic;html=1;rounded=0;exitX=0.5;exitY=1;exitDx=0;exitDy=0;entryX=0;entryY=0;entryDx=0;entryDy=0;" parent="1" source="WlIdeiedV5WxPYd-yGUF-24" target="WlIdeiedV5WxPYd-yGUF-103" edge="1">
          <mxGeometry width="50" height="50" relative="1" as="geometry">
            <mxPoint x="920" y="389" as="sourcePoint" />
            <mxPoint x="970" y="339" as="targetPoint" />
          </mxGeometry>
        </mxCell>
        <mxCell id="WlIdeiedV5WxPYd-yGUF-125" value="" style="endArrow=classic;html=1;rounded=0;exitX=0.925;exitY=0.563;exitDx=0;exitDy=0;exitPerimeter=0;entryX=0.5;entryY=0;entryDx=0;entryDy=0;" parent="1" source="WlIdeiedV5WxPYd-yGUF-22" target="WlIdeiedV5WxPYd-yGUF-24" edge="1">
          <mxGeometry width="50" height="50" relative="1" as="geometry">
            <mxPoint x="920" y="389" as="sourcePoint" />
            <mxPoint x="970" y="339" as="targetPoint" />
          </mxGeometry>
        </mxCell>
        <mxCell id="WlIdeiedV5WxPYd-yGUF-126" value="" style="endArrow=classic;html=1;rounded=0;exitX=1.239;exitY=0.604;exitDx=0;exitDy=0;exitPerimeter=0;entryX=1;entryY=0;entryDx=0;entryDy=0;" parent="1" source="WlIdeiedV5WxPYd-yGUF-101" target="WlIdeiedV5WxPYd-yGUF-103" edge="1">
          <mxGeometry width="50" height="50" relative="1" as="geometry">
            <mxPoint x="920" y="354" as="sourcePoint" />
            <mxPoint x="970" y="304" as="targetPoint" />
          </mxGeometry>
        </mxCell>
        <mxCell id="WlIdeiedV5WxPYd-yGUF-127" value="" style="endArrow=classic;html=1;rounded=0;entryX=1;entryY=0;entryDx=0;entryDy=0;exitX=0.5;exitY=0.448;exitDx=0;exitDy=0;exitPerimeter=0;" parent="1" source="WlIdeiedV5WxPYd-yGUF-85" target="WlIdeiedV5WxPYd-yGUF-84" edge="1">
          <mxGeometry width="50" height="50" relative="1" as="geometry">
            <mxPoint x="920" y="311.04" as="sourcePoint" />
            <mxPoint x="844.0710678118653" y="243.9689321881343" as="targetPoint" />
          </mxGeometry>
        </mxCell>
        <mxCell id="WlIdeiedV5WxPYd-yGUF-128" value="" style="endArrow=classic;html=1;rounded=0;exitX=0.435;exitY=0.865;exitDx=0;exitDy=0;exitPerimeter=0;entryX=0.5;entryY=0;entryDx=0;entryDy=0;" parent="1" source="WlIdeiedV5WxPYd-yGUF-35" target="WlIdeiedV5WxPYd-yGUF-84" edge="1">
          <mxGeometry width="50" height="50" relative="1" as="geometry">
            <mxPoint x="920" y="320" as="sourcePoint" />
            <mxPoint x="970" y="270" as="targetPoint" />
          </mxGeometry>
        </mxCell>
        <mxCell id="WlIdeiedV5WxPYd-yGUF-129" value="4" style="text;html=1;align=center;verticalAlign=middle;resizable=0;points=[];autosize=1;strokeColor=none;fillColor=none;" parent="1" vertex="1">
          <mxGeometry x="435" y="404" width="30" height="30" as="geometry" />
        </mxCell>
        <mxCell id="WlIdeiedV5WxPYd-yGUF-130" value="" style="endArrow=classic;html=1;rounded=0;exitX=0.5;exitY=1;exitDx=0;exitDy=0;entryX=0.5;entryY=0;entryDx=0;entryDy=0;" parent="1" source="WlIdeiedV5WxPYd-yGUF-89" target="WlIdeiedV5WxPYd-yGUF-109" edge="1">
          <mxGeometry width="50" height="50" relative="1" as="geometry">
            <mxPoint x="760" y="300" as="sourcePoint" />
            <mxPoint x="810" y="250" as="targetPoint" />
          </mxGeometry>
        </mxCell>
        <mxCell id="WlIdeiedV5WxPYd-yGUF-132" value="" style="endArrow=classic;html=1;rounded=0;exitX=0.5;exitY=1;exitDx=0;exitDy=0;entryX=0.5;entryY=0;entryDx=0;entryDy=0;" parent="1" source="WlIdeiedV5WxPYd-yGUF-55" target="iML82PHEN0vILoig2JXb-24" edge="1">
          <mxGeometry width="50" height="50" relative="1" as="geometry">
            <mxPoint x="760" y="300" as="sourcePoint" />
            <mxPoint x="810" y="250" as="targetPoint" />
          </mxGeometry>
        </mxCell>
        <mxCell id="WlIdeiedV5WxPYd-yGUF-133" value="" style="endArrow=classic;html=1;rounded=0;exitX=0.873;exitY=0.792;exitDx=0;exitDy=0;exitPerimeter=0;entryX=0.5;entryY=0;entryDx=0;entryDy=0;" parent="1" source="WlIdeiedV5WxPYd-yGUF-40" target="WlIdeiedV5WxPYd-yGUF-89" edge="1">
          <mxGeometry width="50" height="50" relative="1" as="geometry">
            <mxPoint x="760" y="300" as="sourcePoint" />
            <mxPoint x="810" y="250" as="targetPoint" />
            <Array as="points">
              <mxPoint x="1140" y="100" />
            </Array>
          </mxGeometry>
        </mxCell>
        <mxCell id="WlIdeiedV5WxPYd-yGUF-134" value="" style="endArrow=classic;html=1;rounded=0;exitX=-0.069;exitY=0.684;exitDx=0;exitDy=0;exitPerimeter=0;entryX=0;entryY=0;entryDx=0;entryDy=0;" parent="1" source="WlIdeiedV5WxPYd-yGUF-87" target="WlIdeiedV5WxPYd-yGUF-89" edge="1">
          <mxGeometry width="50" height="50" relative="1" as="geometry">
            <mxPoint x="760" y="300" as="sourcePoint" />
            <mxPoint x="810" y="250" as="targetPoint" />
          </mxGeometry>
        </mxCell>
        <mxCell id="WlIdeiedV5WxPYd-yGUF-135" value="" style="endArrow=classic;html=1;rounded=0;exitX=0.088;exitY=1.067;exitDx=0;exitDy=0;exitPerimeter=0;entryX=1;entryY=0;entryDx=0;entryDy=0;" parent="1" source="WlIdeiedV5WxPYd-yGUF-40" target="WlIdeiedV5WxPYd-yGUF-56" edge="1">
          <mxGeometry width="50" height="50" relative="1" as="geometry">
            <mxPoint x="761" y="91" as="sourcePoint" />
            <mxPoint x="811" y="41" as="targetPoint" />
          </mxGeometry>
        </mxCell>
        <mxCell id="WlIdeiedV5WxPYd-yGUF-136" value="" style="endArrow=classic;html=1;rounded=0;exitX=1.176;exitY=1.145;exitDx=0;exitDy=0;exitPerimeter=0;entryX=0;entryY=0;entryDx=0;entryDy=0;" parent="1" source="WlIdeiedV5WxPYd-yGUF-39" target="WlIdeiedV5WxPYd-yGUF-56" edge="1">
          <mxGeometry width="50" height="50" relative="1" as="geometry">
            <mxPoint x="761" y="91" as="sourcePoint" />
            <mxPoint x="811" y="41" as="targetPoint" />
          </mxGeometry>
        </mxCell>
        <mxCell id="WlIdeiedV5WxPYd-yGUF-137" value="" style="endArrow=classic;html=1;rounded=0;exitX=0.556;exitY=0.798;exitDx=0;exitDy=0;exitPerimeter=0;entryX=1;entryY=0;entryDx=0;entryDy=0;" parent="1" source="WlIdeiedV5WxPYd-yGUF-39" target="WlIdeiedV5WxPYd-yGUF-55" edge="1">
          <mxGeometry width="50" height="50" relative="1" as="geometry">
            <mxPoint x="761" y="91" as="sourcePoint" />
            <mxPoint x="811" y="41" as="targetPoint" />
          </mxGeometry>
        </mxCell>
        <mxCell id="WlIdeiedV5WxPYd-yGUF-138" value="" style="endArrow=classic;html=1;rounded=0;exitX=0.359;exitY=0.889;exitDx=0;exitDy=0;exitPerimeter=0;entryX=0;entryY=0;entryDx=0;entryDy=0;" parent="1" source="WlIdeiedV5WxPYd-yGUF-38" target="WlIdeiedV5WxPYd-yGUF-55" edge="1">
          <mxGeometry width="50" height="50" relative="1" as="geometry">
            <mxPoint x="761" y="91" as="sourcePoint" />
            <mxPoint x="811" y="41" as="targetPoint" />
          </mxGeometry>
        </mxCell>
        <mxCell id="WlIdeiedV5WxPYd-yGUF-139" value="" style="endArrow=classic;html=1;rounded=0;exitX=0.238;exitY=0.526;exitDx=0;exitDy=0;exitPerimeter=0;entryX=1;entryY=0;entryDx=0;entryDy=0;" parent="1" source="WlIdeiedV5WxPYd-yGUF-38" target="iML82PHEN0vILoig2JXb-22" edge="1">
          <mxGeometry width="50" height="50" relative="1" as="geometry">
            <mxPoint x="760" y="300" as="sourcePoint" />
            <mxPoint x="810" y="250" as="targetPoint" />
          </mxGeometry>
        </mxCell>
        <mxCell id="WlIdeiedV5WxPYd-yGUF-140" value="" style="endArrow=classic;html=1;rounded=0;exitX=0.314;exitY=0.798;exitDx=0;exitDy=0;exitPerimeter=0;entryX=1;entryY=0;entryDx=0;entryDy=0;" parent="1" source="WlIdeiedV5WxPYd-yGUF-37" target="WlIdeiedV5WxPYd-yGUF-54" edge="1">
          <mxGeometry width="50" height="50" relative="1" as="geometry">
            <mxPoint x="761" y="91" as="sourcePoint" />
            <mxPoint x="811" y="41" as="targetPoint" />
          </mxGeometry>
        </mxCell>
        <mxCell id="WlIdeiedV5WxPYd-yGUF-141" value="" style="endArrow=classic;html=1;rounded=0;exitX=0.814;exitY=0.829;exitDx=0;exitDy=0;exitPerimeter=0;entryX=0;entryY=0;entryDx=0;entryDy=0;" parent="1" source="WlIdeiedV5WxPYd-yGUF-36" target="WlIdeiedV5WxPYd-yGUF-54" edge="1">
          <mxGeometry width="50" height="50" relative="1" as="geometry">
            <mxPoint x="761" y="91" as="sourcePoint" />
            <mxPoint x="811" y="41" as="targetPoint" />
          </mxGeometry>
        </mxCell>
        <mxCell id="WlIdeiedV5WxPYd-yGUF-142" value="" style="endArrow=classic;html=1;rounded=0;exitX=0.5;exitY=1;exitDx=0;exitDy=0;entryX=1;entryY=0.25;entryDx=0;entryDy=0;" parent="1" source="WlIdeiedV5WxPYd-yGUF-54" target="iML82PHEN0vILoig2JXb-23" edge="1">
          <mxGeometry width="50" height="50" relative="1" as="geometry">
            <mxPoint x="760" y="300" as="sourcePoint" />
            <mxPoint x="810" y="250" as="targetPoint" />
          </mxGeometry>
        </mxCell>
        <mxCell id="WlIdeiedV5WxPYd-yGUF-143" value="" style="endArrow=classic;html=1;rounded=0;exitX=0.45;exitY=-6.45;exitDx=0;exitDy=0;exitPerimeter=0;entryX=0.5;entryY=0;entryDx=0;entryDy=0;" parent="1" source="WlIdeiedV5WxPYd-yGUF-35" target="WlIdeiedV5WxPYd-yGUF-106" edge="1">
          <mxGeometry width="50" height="50" relative="1" as="geometry">
            <mxPoint x="960" y="430" as="sourcePoint" />
            <mxPoint x="750" y="650" as="targetPoint" />
          </mxGeometry>
        </mxCell>
        <mxCell id="WlIdeiedV5WxPYd-yGUF-144" value="" style="endArrow=classic;html=1;rounded=0;exitX=0.95;exitY=0.117;exitDx=0;exitDy=0;exitPerimeter=0;entryX=0.5;entryY=0;entryDx=0;entryDy=0;" parent="1" source="WlIdeiedV5WxPYd-yGUF-40" target="WlIdeiedV5WxPYd-yGUF-107" edge="1">
          <mxGeometry width="50" height="50" relative="1" as="geometry">
            <mxPoint x="960" y="430" as="sourcePoint" />
            <mxPoint x="1010" y="380" as="targetPoint" />
          </mxGeometry>
        </mxCell>
        <mxCell id="WlIdeiedV5WxPYd-yGUF-145" value="" style="endArrow=classic;html=1;rounded=0;exitX=1;exitY=1;exitDx=0;exitDy=0;entryX=0;entryY=0;entryDx=0;entryDy=0;" parent="1" source="WlIdeiedV5WxPYd-yGUF-90" target="WlIdeiedV5WxPYd-yGUF-108" edge="1">
          <mxGeometry width="50" height="50" relative="1" as="geometry">
            <mxPoint x="960" y="499" as="sourcePoint" />
            <mxPoint x="1010" y="449" as="targetPoint" />
          </mxGeometry>
        </mxCell>
        <mxCell id="WlIdeiedV5WxPYd-yGUF-147" value="" style="endArrow=classic;html=1;rounded=0;exitX=0;exitY=1;exitDx=0;exitDy=0;entryX=1;entryY=0;entryDx=0;entryDy=0;" parent="1" source="WlIdeiedV5WxPYd-yGUF-27" target="WlIdeiedV5WxPYd-yGUF-24" edge="1">
          <mxGeometry width="50" height="50" relative="1" as="geometry">
            <mxPoint x="540" y="439" as="sourcePoint" />
            <mxPoint x="590" y="389" as="targetPoint" />
          </mxGeometry>
        </mxCell>
        <mxCell id="uXUv7unUy_RP0yoppeyo-1" value="" style="rounded=1;whiteSpace=wrap;html=1;" parent="1" vertex="1">
          <mxGeometry x="270" y="709" width="950" height="50" as="geometry" />
        </mxCell>
        <mxCell id="uXUv7unUy_RP0yoppeyo-2" value="" style="rounded=1;whiteSpace=wrap;html=1;" parent="1" vertex="1">
          <mxGeometry x="270" y="779" width="950" height="50" as="geometry" />
        </mxCell>
        <mxCell id="uXUv7unUy_RP0yoppeyo-3" value="" style="rounded=1;whiteSpace=wrap;html=1;" parent="1" vertex="1">
          <mxGeometry x="270" y="849" width="950" height="50" as="geometry" />
        </mxCell>
        <mxCell id="uXUv7unUy_RP0yoppeyo-4" value="" style="rounded=1;whiteSpace=wrap;html=1;" parent="1" vertex="1">
          <mxGeometry x="270" y="919" width="950" height="50" as="geometry" />
        </mxCell>
        <mxCell id="uXUv7unUy_RP0yoppeyo-5" value="" style="rounded=1;whiteSpace=wrap;html=1;" parent="1" vertex="1">
          <mxGeometry x="340" y="989" width="810" height="50" as="geometry" />
        </mxCell>
        <mxCell id="uXUv7unUy_RP0yoppeyo-6" value="" style="rounded=1;whiteSpace=wrap;html=1;" parent="1" vertex="1">
          <mxGeometry x="340" y="1059" width="810" height="49" as="geometry" />
        </mxCell>
        <mxCell id="uXUv7unUy_RP0yoppeyo-7" value="" style="rounded=1;whiteSpace=wrap;html=1;" parent="1" vertex="1">
          <mxGeometry x="340" y="1129" width="810" height="50" as="geometry" />
        </mxCell>
        <mxCell id="uXUv7unUy_RP0yoppeyo-8" value="" style="rounded=1;whiteSpace=wrap;html=1;" parent="1" vertex="1">
          <mxGeometry x="340" y="1199" width="810" height="50" as="geometry" />
        </mxCell>
        <mxCell id="uXUv7unUy_RP0yoppeyo-9" value="" style="rounded=1;whiteSpace=wrap;html=1;" parent="1" vertex="1">
          <mxGeometry x="340" y="1269" width="810" height="50" as="geometry" />
        </mxCell>
        <mxCell id="uXUv7unUy_RP0yoppeyo-10" value="" style="rounded=1;whiteSpace=wrap;html=1;" parent="1" vertex="1">
          <mxGeometry x="340" y="1339" width="810" height="50" as="geometry" />
        </mxCell>
        <mxCell id="uXUv7unUy_RP0yoppeyo-11" value="" style="rounded=1;whiteSpace=wrap;html=1;" parent="1" vertex="1">
          <mxGeometry x="340" y="1409" width="810" height="50" as="geometry" />
        </mxCell>
        <mxCell id="uXUv7unUy_RP0yoppeyo-12" value="" style="rounded=1;whiteSpace=wrap;html=1;" parent="1" vertex="1">
          <mxGeometry x="340" y="1479" width="810" height="50" as="geometry" />
        </mxCell>
        <mxCell id="uXUv7unUy_RP0yoppeyo-13" value="" style="ellipse;whiteSpace=wrap;html=1;aspect=fixed;" parent="1" vertex="1">
          <mxGeometry x="1220" y="654" width="20" height="20" as="geometry" />
        </mxCell>
        <mxCell id="uXUv7unUy_RP0yoppeyo-14" value="" style="ellipse;whiteSpace=wrap;html=1;aspect=fixed;" parent="1" vertex="1">
          <mxGeometry x="540" y="719" width="20" height="20" as="geometry" />
        </mxCell>
        <mxCell id="uXUv7unUy_RP0yoppeyo-15" value="" style="ellipse;whiteSpace=wrap;html=1;aspect=fixed;" parent="1" vertex="1">
          <mxGeometry x="920" y="724" width="20" height="20" as="geometry" />
        </mxCell>
        <mxCell id="uXUv7unUy_RP0yoppeyo-16" value="" style="ellipse;whiteSpace=wrap;html=1;aspect=fixed;" parent="1" vertex="1">
          <mxGeometry x="610" y="789" width="20" height="20" as="geometry" />
        </mxCell>
        <mxCell id="uXUv7unUy_RP0yoppeyo-17" value="" style="ellipse;whiteSpace=wrap;html=1;aspect=fixed;" parent="1" vertex="1">
          <mxGeometry x="670" y="859" width="20" height="20" as="geometry" />
        </mxCell>
        <mxCell id="uXUv7unUy_RP0yoppeyo-18" value="" style="ellipse;whiteSpace=wrap;html=1;aspect=fixed;" parent="1" vertex="1">
          <mxGeometry x="1010" y="800" width="20" height="20" as="geometry" />
        </mxCell>
        <mxCell id="uXUv7unUy_RP0yoppeyo-19" value="" style="ellipse;whiteSpace=wrap;html=1;aspect=fixed;" parent="1" vertex="1">
          <mxGeometry x="880" y="924" width="20" height="20" as="geometry" />
        </mxCell>
        <mxCell id="uXUv7unUy_RP0yoppeyo-20" value="" style="ellipse;whiteSpace=wrap;html=1;aspect=fixed;" parent="1" vertex="1">
          <mxGeometry x="1090" y="859" width="20" height="20" as="geometry" />
        </mxCell>
        <mxCell id="uXUv7unUy_RP0yoppeyo-21" value="" style="ellipse;whiteSpace=wrap;html=1;aspect=fixed;" parent="1" vertex="1">
          <mxGeometry x="1070" y="924" width="20" height="20" as="geometry" />
        </mxCell>
        <mxCell id="uXUv7unUy_RP0yoppeyo-22" value="" style="ellipse;whiteSpace=wrap;html=1;aspect=fixed;" parent="1" vertex="1">
          <mxGeometry x="725" y="1004" width="20" height="20" as="geometry" />
        </mxCell>
        <mxCell id="uXUv7unUy_RP0yoppeyo-23" value="" style="ellipse;whiteSpace=wrap;html=1;aspect=fixed;" parent="1" vertex="1">
          <mxGeometry x="610" y="1073.5" width="20" height="20" as="geometry" />
        </mxCell>
        <mxCell id="uXUv7unUy_RP0yoppeyo-24" value="" style="ellipse;whiteSpace=wrap;html=1;aspect=fixed;" parent="1" vertex="1">
          <mxGeometry x="1015" y="1144" width="20" height="20" as="geometry" />
        </mxCell>
        <mxCell id="uXUv7unUy_RP0yoppeyo-25" value="1" style="text;html=1;align=center;verticalAlign=middle;resizable=0;points=[];autosize=1;strokeColor=none;fillColor=none;" parent="1" vertex="1">
          <mxGeometry x="291" y="125" width="30" height="30" as="geometry" />
        </mxCell>
        <mxCell id="uXUv7unUy_RP0yoppeyo-28" value="" style="ellipse;whiteSpace=wrap;html=1;aspect=fixed;" parent="1" vertex="1">
          <mxGeometry x="650" y="1144" width="20" height="20" as="geometry" />
        </mxCell>
        <mxCell id="uXUv7unUy_RP0yoppeyo-29" value="" style="ellipse;whiteSpace=wrap;html=1;aspect=fixed;" parent="1" vertex="1">
          <mxGeometry x="540" y="1214" width="20" height="20" as="geometry" />
        </mxCell>
        <mxCell id="uXUv7unUy_RP0yoppeyo-30" value="" style="ellipse;whiteSpace=wrap;html=1;aspect=fixed;" parent="1" vertex="1">
          <mxGeometry x="1000" y="1214" width="20" height="20" as="geometry" />
        </mxCell>
        <mxCell id="uXUv7unUy_RP0yoppeyo-31" value="" style="ellipse;whiteSpace=wrap;html=1;aspect=fixed;" parent="1" vertex="1">
          <mxGeometry x="695" y="1214" width="20" height="20" as="geometry" />
        </mxCell>
        <mxCell id="uXUv7unUy_RP0yoppeyo-32" value="" style="ellipse;whiteSpace=wrap;html=1;aspect=fixed;" parent="1" vertex="1">
          <mxGeometry x="752.5" y="1144" width="20" height="20" as="geometry" />
        </mxCell>
        <mxCell id="uXUv7unUy_RP0yoppeyo-35" value="" style="ellipse;whiteSpace=wrap;html=1;aspect=fixed;" parent="1" vertex="1">
          <mxGeometry x="757.5" y="1284" width="20" height="20" as="geometry" />
        </mxCell>
        <mxCell id="uXUv7unUy_RP0yoppeyo-36" value="" style="ellipse;whiteSpace=wrap;html=1;aspect=fixed;" parent="1" vertex="1">
          <mxGeometry x="635" y="1424" width="20" height="20" as="geometry" />
        </mxCell>
        <mxCell id="uXUv7unUy_RP0yoppeyo-37" value="" style="ellipse;whiteSpace=wrap;html=1;aspect=fixed;" parent="1" vertex="1">
          <mxGeometry x="900" y="1424" width="20" height="20" as="geometry" />
        </mxCell>
        <mxCell id="uXUv7unUy_RP0yoppeyo-38" value="" style="ellipse;whiteSpace=wrap;html=1;aspect=fixed;" parent="1" vertex="1">
          <mxGeometry x="820" y="1499" width="20" height="20" as="geometry" />
        </mxCell>
        <mxCell id="uXUv7unUy_RP0yoppeyo-39" value="" style="ellipse;whiteSpace=wrap;html=1;aspect=fixed;" parent="1" vertex="1">
          <mxGeometry x="800" y="1354" width="20" height="20" as="geometry" />
        </mxCell>
        <mxCell id="uXUv7unUy_RP0yoppeyo-40" value="" style="ellipse;whiteSpace=wrap;html=1;aspect=fixed;" parent="1" vertex="1">
          <mxGeometry x="1065" y="1284" width="20" height="20" as="geometry" />
        </mxCell>
        <mxCell id="uXUv7unUy_RP0yoppeyo-42" value="" style="shape=waypoint;sketch=0;fillStyle=solid;size=6;pointerEvents=1;points=[];fillColor=none;resizable=0;rotatable=0;perimeter=centerPerimeter;snapToPoint=1;" parent="1" vertex="1">
          <mxGeometry x="500" y="689" width="20" height="20" as="geometry" />
        </mxCell>
        <mxCell id="uXUv7unUy_RP0yoppeyo-43" value="1" style="text;html=1;align=center;verticalAlign=middle;resizable=0;points=[];autosize=1;strokeColor=none;fillColor=none;" parent="1" vertex="1">
          <mxGeometry x="480" y="684" width="30" height="30" as="geometry" />
        </mxCell>
        <mxCell id="uXUv7unUy_RP0yoppeyo-44" value="" style="shape=waypoint;sketch=0;fillStyle=solid;size=6;pointerEvents=1;points=[];fillColor=none;resizable=0;rotatable=0;perimeter=centerPerimeter;snapToPoint=1;" parent="1" vertex="1">
          <mxGeometry x="847" y="689" width="20" height="20" as="geometry" />
        </mxCell>
        <mxCell id="uXUv7unUy_RP0yoppeyo-45" value="1" style="text;html=1;align=center;verticalAlign=middle;resizable=0;points=[];autosize=1;strokeColor=none;fillColor=none;" parent="1" vertex="1">
          <mxGeometry x="827" y="684" width="30" height="30" as="geometry" />
        </mxCell>
        <mxCell id="uXUv7unUy_RP0yoppeyo-46" value="" style="shape=waypoint;sketch=0;fillStyle=solid;size=6;pointerEvents=1;points=[];fillColor=none;resizable=0;rotatable=0;perimeter=centerPerimeter;snapToPoint=1;" parent="1" vertex="1">
          <mxGeometry x="1035" y="1109" width="20" height="20" as="geometry" />
        </mxCell>
        <mxCell id="uXUv7unUy_RP0yoppeyo-47" value="3" style="text;html=1;align=center;verticalAlign=middle;resizable=0;points=[];autosize=1;strokeColor=none;fillColor=none;" parent="1" vertex="1">
          <mxGeometry x="1015" y="1104" width="30" height="30" as="geometry" />
        </mxCell>
        <mxCell id="uXUv7unUy_RP0yoppeyo-48" value="" style="shape=waypoint;sketch=0;fillStyle=solid;size=6;pointerEvents=1;points=[];fillColor=none;resizable=0;rotatable=0;perimeter=centerPerimeter;snapToPoint=1;" parent="1" vertex="1">
          <mxGeometry x="1110" y="1109" width="20" height="20" as="geometry" />
        </mxCell>
        <mxCell id="uXUv7unUy_RP0yoppeyo-49" value="g00" style="text;html=1;align=center;verticalAlign=middle;resizable=0;points=[];autosize=1;strokeColor=none;fillColor=none;" parent="1" vertex="1">
          <mxGeometry x="1080" y="1104" width="40" height="30" as="geometry" />
        </mxCell>
        <mxCell id="uXUv7unUy_RP0yoppeyo-50" value="" style="shape=waypoint;sketch=0;fillStyle=solid;size=6;pointerEvents=1;points=[];fillColor=none;resizable=0;rotatable=0;perimeter=centerPerimeter;snapToPoint=1;" parent="1" vertex="1">
          <mxGeometry x="700" y="1039" width="20" height="20" as="geometry" />
        </mxCell>
        <mxCell id="uXUv7unUy_RP0yoppeyo-51" value="3" style="text;html=1;align=center;verticalAlign=middle;resizable=0;points=[];autosize=1;strokeColor=none;fillColor=none;" parent="1" vertex="1">
          <mxGeometry x="685" y="1034" width="30" height="30" as="geometry" />
        </mxCell>
        <mxCell id="uXUv7unUy_RP0yoppeyo-52" value="" style="shape=waypoint;sketch=0;fillStyle=solid;size=6;pointerEvents=1;points=[];fillColor=none;resizable=0;rotatable=0;perimeter=centerPerimeter;snapToPoint=1;" parent="1" vertex="1">
          <mxGeometry x="960" y="1039" width="20" height="20" as="geometry" />
        </mxCell>
        <mxCell id="uXUv7unUy_RP0yoppeyo-53" value="2" style="text;html=1;align=center;verticalAlign=middle;resizable=0;points=[];autosize=1;strokeColor=none;fillColor=none;" parent="1" vertex="1">
          <mxGeometry x="940" y="1034" width="30" height="30" as="geometry" />
        </mxCell>
        <mxCell id="uXUv7unUy_RP0yoppeyo-54" value="" style="shape=waypoint;sketch=0;fillStyle=solid;size=6;pointerEvents=1;points=[];fillColor=none;resizable=0;rotatable=0;perimeter=centerPerimeter;snapToPoint=1;" parent="1" vertex="1">
          <mxGeometry x="680" y="1109" width="20" height="20" as="geometry" />
        </mxCell>
        <mxCell id="uXUv7unUy_RP0yoppeyo-55" value="4" style="text;html=1;align=center;verticalAlign=middle;resizable=0;points=[];autosize=1;strokeColor=none;fillColor=none;" parent="1" vertex="1">
          <mxGeometry x="665" y="1103" width="30" height="30" as="geometry" />
        </mxCell>
        <mxCell id="uXUv7unUy_RP0yoppeyo-56" value="" style="shape=waypoint;sketch=0;fillStyle=solid;size=6;pointerEvents=1;points=[];fillColor=none;resizable=0;rotatable=0;perimeter=centerPerimeter;snapToPoint=1;" parent="1" vertex="1">
          <mxGeometry x="470" y="1179" width="20" height="20" as="geometry" />
        </mxCell>
        <mxCell id="uXUv7unUy_RP0yoppeyo-57" value="1" style="text;html=1;align=center;verticalAlign=middle;resizable=0;points=[];autosize=1;strokeColor=none;fillColor=none;" parent="1" vertex="1">
          <mxGeometry x="450" y="1174" width="30" height="30" as="geometry" />
        </mxCell>
        <mxCell id="uXUv7unUy_RP0yoppeyo-58" value="" style="shape=waypoint;sketch=0;fillStyle=solid;size=6;pointerEvents=1;points=[];fillColor=none;resizable=0;rotatable=0;perimeter=centerPerimeter;snapToPoint=1;" parent="1" vertex="1">
          <mxGeometry x="590" y="1179" width="20" height="20" as="geometry" />
        </mxCell>
        <mxCell id="uXUv7unUy_RP0yoppeyo-59" value="g00" style="text;html=1;align=center;verticalAlign=middle;resizable=0;points=[];autosize=1;strokeColor=none;fillColor=none;" parent="1" vertex="1">
          <mxGeometry x="560" y="1174" width="40" height="30" as="geometry" />
        </mxCell>
        <mxCell id="uXUv7unUy_RP0yoppeyo-60" value="g00" style="text;html=1;align=center;verticalAlign=middle;resizable=0;points=[];autosize=1;strokeColor=none;fillColor=none;" parent="1" vertex="1">
          <mxGeometry x="645" y="1244" width="40" height="30" as="geometry" />
        </mxCell>
        <mxCell id="uXUv7unUy_RP0yoppeyo-62" value="" style="shape=waypoint;sketch=0;fillStyle=solid;size=6;pointerEvents=1;points=[];fillColor=none;resizable=0;rotatable=0;perimeter=centerPerimeter;snapToPoint=1;" parent="1" vertex="1">
          <mxGeometry x="680" y="1249" width="20" height="20" as="geometry" />
        </mxCell>
        <mxCell id="uXUv7unUy_RP0yoppeyo-63" value="" style="endArrow=classic;html=1;rounded=0;exitX=0.5;exitY=1;exitDx=0;exitDy=0;entryX=0;entryY=0;entryDx=0;entryDy=0;" parent="1" source="uXUv7unUy_RP0yoppeyo-19" target="uXUv7unUy_RP0yoppeyo-22" edge="1">
          <mxGeometry width="50" height="50" relative="1" as="geometry">
            <mxPoint x="520" y="839" as="sourcePoint" />
            <mxPoint x="570" y="789" as="targetPoint" />
          </mxGeometry>
        </mxCell>
        <mxCell id="uXUv7unUy_RP0yoppeyo-64" value="" style="endArrow=classic;html=1;rounded=0;exitX=0.5;exitY=1;exitDx=0;exitDy=0;entryX=0;entryY=0;entryDx=0;entryDy=0;" parent="1" source="WlIdeiedV5WxPYd-yGUF-26" target="uXUv7unUy_RP0yoppeyo-23" edge="1">
          <mxGeometry width="50" height="50" relative="1" as="geometry">
            <mxPoint x="520" y="770" as="sourcePoint" />
            <mxPoint x="570" y="720" as="targetPoint" />
            <Array as="points">
              <mxPoint x="240" y="560" />
              <mxPoint x="240" y="960" />
            </Array>
          </mxGeometry>
        </mxCell>
        <mxCell id="uXUv7unUy_RP0yoppeyo-65" value="" style="endArrow=classic;html=1;rounded=0;exitX=0.5;exitY=1;exitDx=0;exitDy=0;entryX=1;entryY=0;entryDx=0;entryDy=0;" parent="1" source="WlIdeiedV5WxPYd-yGUF-53" target="uXUv7unUy_RP0yoppeyo-17" edge="1">
          <mxGeometry width="50" height="50" relative="1" as="geometry">
            <mxPoint x="520" y="770" as="sourcePoint" />
            <mxPoint x="570" y="720" as="targetPoint" />
          </mxGeometry>
        </mxCell>
        <mxCell id="uXUv7unUy_RP0yoppeyo-66" value="" style="endArrow=classic;html=1;rounded=0;exitX=0.5;exitY=1;exitDx=0;exitDy=0;entryX=0.5;entryY=0;entryDx=0;entryDy=0;" parent="1" source="WlIdeiedV5WxPYd-yGUF-83" target="uXUv7unUy_RP0yoppeyo-16" edge="1">
          <mxGeometry width="50" height="50" relative="1" as="geometry">
            <mxPoint x="520" y="839" as="sourcePoint" />
            <mxPoint x="570" y="789" as="targetPoint" />
          </mxGeometry>
        </mxCell>
        <mxCell id="uXUv7unUy_RP0yoppeyo-68" value="" style="endArrow=classic;html=1;rounded=0;exitX=0.5;exitY=1;exitDx=0;exitDy=0;entryX=1;entryY=0;entryDx=0;entryDy=0;" parent="1" source="WlIdeiedV5WxPYd-yGUF-106" target="uXUv7unUy_RP0yoppeyo-19" edge="1">
          <mxGeometry width="50" height="50" relative="1" as="geometry">
            <mxPoint x="520" y="839" as="sourcePoint" />
            <mxPoint x="570" y="789" as="targetPoint" />
          </mxGeometry>
        </mxCell>
        <mxCell id="uXUv7unUy_RP0yoppeyo-69" value="" style="endArrow=classic;html=1;rounded=0;exitX=0.5;exitY=1;exitDx=0;exitDy=0;entryX=0.5;entryY=0;entryDx=0;entryDy=0;" parent="1" source="WlIdeiedV5WxPYd-yGUF-104" target="uXUv7unUy_RP0yoppeyo-14" edge="1">
          <mxGeometry width="50" height="50" relative="1" as="geometry">
            <mxPoint x="520" y="839" as="sourcePoint" />
            <mxPoint x="570" y="789" as="targetPoint" />
          </mxGeometry>
        </mxCell>
        <mxCell id="uXUv7unUy_RP0yoppeyo-70" value="" style="endArrow=classic;html=1;rounded=0;exitX=0.5;exitY=1;exitDx=0;exitDy=0;entryX=0.5;entryY=0;entryDx=0;entryDy=0;" parent="1" source="WlIdeiedV5WxPYd-yGUF-84" target="WlIdeiedV5WxPYd-yGUF-94" edge="1">
          <mxGeometry width="50" height="50" relative="1" as="geometry">
            <mxPoint x="520" y="770" as="sourcePoint" />
            <mxPoint x="570" y="720" as="targetPoint" />
          </mxGeometry>
        </mxCell>
        <mxCell id="uXUv7unUy_RP0yoppeyo-71" value="" style="endArrow=classic;html=1;rounded=0;entryX=0.5;entryY=0;entryDx=0;entryDy=0;exitX=1.312;exitY=0.777;exitDx=0;exitDy=0;exitPerimeter=0;" parent="1" source="WlIdeiedV5WxPYd-yGUF-40" target="uXUv7unUy_RP0yoppeyo-13" edge="1">
          <mxGeometry width="50" height="50" relative="1" as="geometry">
            <mxPoint x="520" y="770" as="sourcePoint" />
            <mxPoint x="570" y="720" as="targetPoint" />
            <Array as="points">
              <mxPoint x="1200" y="60" />
            </Array>
          </mxGeometry>
        </mxCell>
        <mxCell id="uXUv7unUy_RP0yoppeyo-72" value="" style="endArrow=classic;html=1;rounded=0;exitX=0.5;exitY=1;exitDx=0;exitDy=0;entryX=1;entryY=0;entryDx=0;entryDy=0;" parent="1" source="WlIdeiedV5WxPYd-yGUF-56" target="uXUv7unUy_RP0yoppeyo-20" edge="1">
          <mxGeometry width="50" height="50" relative="1" as="geometry">
            <mxPoint x="520" y="770" as="sourcePoint" />
            <mxPoint x="570" y="720" as="targetPoint" />
          </mxGeometry>
        </mxCell>
        <mxCell id="uXUv7unUy_RP0yoppeyo-73" value="" style="endArrow=classic;html=1;rounded=0;exitX=0.5;exitY=1;exitDx=0;exitDy=0;entryX=1;entryY=0;entryDx=0;entryDy=0;" parent="1" source="uXUv7unUy_RP0yoppeyo-13" target="uXUv7unUy_RP0yoppeyo-21" edge="1">
          <mxGeometry width="50" height="50" relative="1" as="geometry">
            <mxPoint x="520" y="839" as="sourcePoint" />
            <mxPoint x="570" y="789" as="targetPoint" />
          </mxGeometry>
        </mxCell>
        <mxCell id="uXUv7unUy_RP0yoppeyo-74" value="" style="endArrow=classic;html=1;rounded=0;exitX=0.5;exitY=1;exitDx=0;exitDy=0;entryX=0;entryY=0;entryDx=0;entryDy=0;" parent="1" source="WlIdeiedV5WxPYd-yGUF-108" target="uXUv7unUy_RP0yoppeyo-13" edge="1">
          <mxGeometry width="50" height="50" relative="1" as="geometry">
            <mxPoint x="520" y="839" as="sourcePoint" />
            <mxPoint x="570" y="789" as="targetPoint" />
          </mxGeometry>
        </mxCell>
        <mxCell id="uXUv7unUy_RP0yoppeyo-75" value="" style="endArrow=classic;html=1;rounded=0;exitX=0.5;exitY=1;exitDx=0;exitDy=0;entryX=1;entryY=0;entryDx=0;entryDy=0;" parent="1" source="WlIdeiedV5WxPYd-yGUF-107" target="uXUv7unUy_RP0yoppeyo-15" edge="1">
          <mxGeometry width="50" height="50" relative="1" as="geometry">
            <mxPoint x="520" y="839" as="sourcePoint" />
            <mxPoint x="570" y="789" as="targetPoint" />
          </mxGeometry>
        </mxCell>
        <mxCell id="uXUv7unUy_RP0yoppeyo-76" value="" style="endArrow=classic;html=1;rounded=0;exitX=0.5;exitY=1;exitDx=0;exitDy=0;entryX=0.5;entryY=0;entryDx=0;entryDy=0;" parent="1" source="WlIdeiedV5WxPYd-yGUF-91" target="uXUv7unUy_RP0yoppeyo-18" edge="1">
          <mxGeometry width="50" height="50" relative="1" as="geometry">
            <mxPoint x="520" y="839" as="sourcePoint" />
            <mxPoint x="570" y="789" as="targetPoint" />
          </mxGeometry>
        </mxCell>
        <mxCell id="uXUv7unUy_RP0yoppeyo-77" value="" style="endArrow=classic;html=1;rounded=0;exitX=0.5;exitY=1;exitDx=0;exitDy=0;entryX=0.5;entryY=0;entryDx=0;entryDy=0;" parent="1" source="uXUv7unUy_RP0yoppeyo-20" target="uXUv7unUy_RP0yoppeyo-21" edge="1">
          <mxGeometry width="50" height="50" relative="1" as="geometry">
            <mxPoint x="520" y="839" as="sourcePoint" />
            <mxPoint x="570" y="789" as="targetPoint" />
          </mxGeometry>
        </mxCell>
        <mxCell id="uXUv7unUy_RP0yoppeyo-78" value="" style="endArrow=classic;html=1;rounded=0;exitX=0.5;exitY=1;exitDx=0;exitDy=0;entryX=0.5;entryY=0;entryDx=0;entryDy=0;" parent="1" source="uXUv7unUy_RP0yoppeyo-18" target="uXUv7unUy_RP0yoppeyo-20" edge="1">
          <mxGeometry width="50" height="50" relative="1" as="geometry">
            <mxPoint x="520" y="839" as="sourcePoint" />
            <mxPoint x="570" y="789" as="targetPoint" />
          </mxGeometry>
        </mxCell>
        <mxCell id="uXUv7unUy_RP0yoppeyo-79" value="" style="endArrow=classic;html=1;rounded=0;exitX=0.5;exitY=1;exitDx=0;exitDy=0;entryX=0;entryY=0;entryDx=0;entryDy=0;" parent="1" source="uXUv7unUy_RP0yoppeyo-15" target="uXUv7unUy_RP0yoppeyo-18" edge="1">
          <mxGeometry width="50" height="50" relative="1" as="geometry">
            <mxPoint x="520" y="839" as="sourcePoint" />
            <mxPoint x="570" y="789" as="targetPoint" />
          </mxGeometry>
        </mxCell>
        <mxCell id="uXUv7unUy_RP0yoppeyo-80" value="" style="endArrow=classic;html=1;rounded=0;exitX=1.105;exitY=0.693;exitDx=0;exitDy=0;exitPerimeter=0;entryX=0.5;entryY=0;entryDx=0;entryDy=0;" parent="1" source="uXUv7unUy_RP0yoppeyo-44" target="uXUv7unUy_RP0yoppeyo-15" edge="1">
          <mxGeometry width="50" height="50" relative="1" as="geometry">
            <mxPoint x="520" y="839" as="sourcePoint" />
            <mxPoint x="570" y="789" as="targetPoint" />
          </mxGeometry>
        </mxCell>
        <mxCell id="uXUv7unUy_RP0yoppeyo-81" value="" style="endArrow=classic;html=1;rounded=0;exitX=0.5;exitY=1;exitDx=0;exitDy=0;entryX=0.5;entryY=0;entryDx=0;entryDy=0;" parent="1" source="uXUv7unUy_RP0yoppeyo-17" target="uXUv7unUy_RP0yoppeyo-19" edge="1">
          <mxGeometry width="50" height="50" relative="1" as="geometry">
            <mxPoint x="520" y="839" as="sourcePoint" />
            <mxPoint x="570" y="789" as="targetPoint" />
          </mxGeometry>
        </mxCell>
        <mxCell id="uXUv7unUy_RP0yoppeyo-82" value="" style="endArrow=classic;html=1;rounded=0;exitX=0.5;exitY=1;exitDx=0;exitDy=0;entryX=0.5;entryY=0;entryDx=0;entryDy=0;" parent="1" source="uXUv7unUy_RP0yoppeyo-16" target="uXUv7unUy_RP0yoppeyo-17" edge="1">
          <mxGeometry width="50" height="50" relative="1" as="geometry">
            <mxPoint x="520" y="839" as="sourcePoint" />
            <mxPoint x="570" y="789" as="targetPoint" />
          </mxGeometry>
        </mxCell>
        <mxCell id="uXUv7unUy_RP0yoppeyo-83" value="" style="endArrow=classic;html=1;rounded=0;exitX=1;exitY=1;exitDx=0;exitDy=0;entryX=0;entryY=0;entryDx=0;entryDy=0;" parent="1" source="uXUv7unUy_RP0yoppeyo-14" target="uXUv7unUy_RP0yoppeyo-16" edge="1">
          <mxGeometry width="50" height="50" relative="1" as="geometry">
            <mxPoint x="520" y="839" as="sourcePoint" />
            <mxPoint x="570" y="789" as="targetPoint" />
          </mxGeometry>
        </mxCell>
        <mxCell id="uXUv7unUy_RP0yoppeyo-84" value="" style="endArrow=classic;html=1;rounded=0;exitX=0.888;exitY=0.731;exitDx=0;exitDy=0;exitPerimeter=0;entryX=0;entryY=0;entryDx=0;entryDy=0;" parent="1" source="uXUv7unUy_RP0yoppeyo-42" target="uXUv7unUy_RP0yoppeyo-14" edge="1">
          <mxGeometry width="50" height="50" relative="1" as="geometry">
            <mxPoint x="520" y="839" as="sourcePoint" />
            <mxPoint x="570" y="789" as="targetPoint" />
          </mxGeometry>
        </mxCell>
        <mxCell id="uXUv7unUy_RP0yoppeyo-92" value="" style="endArrow=classic;html=1;rounded=0;exitX=0.5;exitY=1;exitDx=0;exitDy=0;entryX=0;entryY=0;entryDx=0;entryDy=0;" parent="1" source="uXUv7unUy_RP0yoppeyo-35" target="uXUv7unUy_RP0yoppeyo-39" edge="1">
          <mxGeometry width="50" height="50" relative="1" as="geometry">
            <mxPoint x="750" y="1229" as="sourcePoint" />
            <mxPoint x="800" y="1179" as="targetPoint" />
          </mxGeometry>
        </mxCell>
        <mxCell id="uXUv7unUy_RP0yoppeyo-93" value="" style="endArrow=classic;html=1;rounded=0;exitX=0.778;exitY=0.583;exitDx=0;exitDy=0;exitPerimeter=0;entryX=0;entryY=0.5;entryDx=0;entryDy=0;" parent="1" source="uXUv7unUy_RP0yoppeyo-62" target="uXUv7unUy_RP0yoppeyo-35" edge="1">
          <mxGeometry width="50" height="50" relative="1" as="geometry">
            <mxPoint x="750" y="1229" as="sourcePoint" />
            <mxPoint x="800" y="1179" as="targetPoint" />
          </mxGeometry>
        </mxCell>
        <mxCell id="uXUv7unUy_RP0yoppeyo-94" value="" style="endArrow=classic;html=1;rounded=0;exitX=1;exitY=1;exitDx=0;exitDy=0;entryX=0;entryY=0;entryDx=0;entryDy=0;" parent="1" source="uXUv7unUy_RP0yoppeyo-31" target="uXUv7unUy_RP0yoppeyo-35" edge="1">
          <mxGeometry width="50" height="50" relative="1" as="geometry">
            <mxPoint x="750" y="1229" as="sourcePoint" />
            <mxPoint x="800" y="1179" as="targetPoint" />
          </mxGeometry>
        </mxCell>
        <mxCell id="uXUv7unUy_RP0yoppeyo-95" value="" style="endArrow=classic;html=1;rounded=0;exitX=0.5;exitY=1;exitDx=0;exitDy=0;entryX=0;entryY=0;entryDx=0;entryDy=0;" parent="1" source="uXUv7unUy_RP0yoppeyo-29" target="uXUv7unUy_RP0yoppeyo-36" edge="1">
          <mxGeometry width="50" height="50" relative="1" as="geometry">
            <mxPoint x="750" y="1229" as="sourcePoint" />
            <mxPoint x="800" y="1179" as="targetPoint" />
          </mxGeometry>
        </mxCell>
        <mxCell id="uXUv7unUy_RP0yoppeyo-96" value="" style="endArrow=classic;html=1;rounded=0;exitX=0.704;exitY=0.396;exitDx=0;exitDy=0;exitPerimeter=0;entryX=0;entryY=0;entryDx=0;entryDy=0;" parent="1" source="uXUv7unUy_RP0yoppeyo-56" target="uXUv7unUy_RP0yoppeyo-29" edge="1">
          <mxGeometry width="50" height="50" relative="1" as="geometry">
            <mxPoint x="750" y="1229" as="sourcePoint" />
            <mxPoint x="800" y="1179" as="targetPoint" />
          </mxGeometry>
        </mxCell>
        <mxCell id="uXUv7unUy_RP0yoppeyo-97" value="" style="endArrow=classic;html=1;rounded=0;exitX=1.035;exitY=0.57;exitDx=0;exitDy=0;exitPerimeter=0;entryX=1;entryY=0;entryDx=0;entryDy=0;" parent="1" source="uXUv7unUy_RP0yoppeyo-58" target="uXUv7unUy_RP0yoppeyo-29" edge="1">
          <mxGeometry width="50" height="50" relative="1" as="geometry">
            <mxPoint x="750" y="1229" as="sourcePoint" />
            <mxPoint x="800" y="1179" as="targetPoint" />
          </mxGeometry>
        </mxCell>
        <mxCell id="uXUv7unUy_RP0yoppeyo-98" value="" style="endArrow=classic;html=1;rounded=0;exitX=0.5;exitY=1;exitDx=0;exitDy=0;entryX=0;entryY=0;entryDx=0;entryDy=0;" parent="1" source="uXUv7unUy_RP0yoppeyo-28" target="uXUv7unUy_RP0yoppeyo-31" edge="1">
          <mxGeometry width="50" height="50" relative="1" as="geometry">
            <mxPoint x="750" y="1229" as="sourcePoint" />
            <mxPoint x="800" y="1179" as="targetPoint" />
          </mxGeometry>
        </mxCell>
        <mxCell id="uXUv7unUy_RP0yoppeyo-99" value="" style="endArrow=classic;html=1;rounded=0;exitX=0;exitY=1;exitDx=0;exitDy=0;entryX=1;entryY=0;entryDx=0;entryDy=0;" parent="1" source="uXUv7unUy_RP0yoppeyo-32" target="uXUv7unUy_RP0yoppeyo-31" edge="1">
          <mxGeometry width="50" height="50" relative="1" as="geometry">
            <mxPoint x="750" y="1229" as="sourcePoint" />
            <mxPoint x="800" y="1179" as="targetPoint" />
          </mxGeometry>
        </mxCell>
        <mxCell id="uXUv7unUy_RP0yoppeyo-100" value="" style="endArrow=classic;html=1;rounded=0;exitX=1.161;exitY=0.522;exitDx=0;exitDy=0;exitPerimeter=0;entryX=1;entryY=0;entryDx=0;entryDy=0;" parent="1" source="uXUv7unUy_RP0yoppeyo-54" target="uXUv7unUy_RP0yoppeyo-28" edge="1">
          <mxGeometry width="50" height="50" relative="1" as="geometry">
            <mxPoint x="750" y="1229" as="sourcePoint" />
            <mxPoint x="800" y="1179" as="targetPoint" />
          </mxGeometry>
        </mxCell>
        <mxCell id="uXUv7unUy_RP0yoppeyo-101" value="" style="endArrow=classic;html=1;rounded=0;exitX=0.5;exitY=1;exitDx=0;exitDy=0;entryX=0;entryY=0;entryDx=0;entryDy=0;" parent="1" source="uXUv7unUy_RP0yoppeyo-23" target="uXUv7unUy_RP0yoppeyo-28" edge="1">
          <mxGeometry width="50" height="50" relative="1" as="geometry">
            <mxPoint x="750" y="1229" as="sourcePoint" />
            <mxPoint x="800" y="1179" as="targetPoint" />
          </mxGeometry>
        </mxCell>
        <mxCell id="uXUv7unUy_RP0yoppeyo-102" value="" style="endArrow=classic;html=1;rounded=0;exitX=1.007;exitY=0.472;exitDx=0;exitDy=0;exitPerimeter=0;entryX=1;entryY=0;entryDx=0;entryDy=0;" parent="1" source="uXUv7unUy_RP0yoppeyo-108" target="uXUv7unUy_RP0yoppeyo-32" edge="1">
          <mxGeometry width="50" height="50" relative="1" as="geometry">
            <mxPoint x="750" y="1229" as="sourcePoint" />
            <mxPoint x="800" y="1179" as="targetPoint" />
          </mxGeometry>
        </mxCell>
        <mxCell id="uXUv7unUy_RP0yoppeyo-103" value="" style="endArrow=classic;html=1;rounded=0;exitX=0.961;exitY=0.613;exitDx=0;exitDy=0;exitPerimeter=0;entryX=0;entryY=0;entryDx=0;entryDy=0;" parent="1" source="uXUv7unUy_RP0yoppeyo-50" target="uXUv7unUy_RP0yoppeyo-32" edge="1">
          <mxGeometry width="50" height="50" relative="1" as="geometry">
            <mxPoint x="750" y="1229" as="sourcePoint" />
            <mxPoint x="800" y="1179" as="targetPoint" />
          </mxGeometry>
        </mxCell>
        <mxCell id="uXUv7unUy_RP0yoppeyo-104" value="" style="endArrow=classic;html=1;rounded=0;exitX=0.724;exitY=1.087;exitDx=0;exitDy=0;exitPerimeter=0;entryX=1;entryY=0.5;entryDx=0;entryDy=0;" parent="1" source="uXUv7unUy_RP0yoppeyo-48" target="uXUv7unUy_RP0yoppeyo-24" edge="1">
          <mxGeometry width="50" height="50" relative="1" as="geometry">
            <mxPoint x="750" y="1229" as="sourcePoint" />
            <mxPoint x="800" y="1179" as="targetPoint" />
          </mxGeometry>
        </mxCell>
        <mxCell id="uXUv7unUy_RP0yoppeyo-105" value="" style="endArrow=classic;html=1;rounded=0;entryX=0.5;entryY=0;entryDx=0;entryDy=0;exitX=1.065;exitY=0.635;exitDx=0;exitDy=0;exitPerimeter=0;" parent="1" source="uXUv7unUy_RP0yoppeyo-46" target="uXUv7unUy_RP0yoppeyo-24" edge="1">
          <mxGeometry width="50" height="50" relative="1" as="geometry">
            <mxPoint x="750" y="1229" as="sourcePoint" />
            <mxPoint x="800" y="1179" as="targetPoint" />
          </mxGeometry>
        </mxCell>
        <mxCell id="uXUv7unUy_RP0yoppeyo-106" value="" style="endArrow=classic;html=1;rounded=0;exitX=0;exitY=1;exitDx=0;exitDy=0;entryX=1;entryY=0;entryDx=0;entryDy=0;" parent="1" source="uXUv7unUy_RP0yoppeyo-22" target="uXUv7unUy_RP0yoppeyo-23" edge="1">
          <mxGeometry width="50" height="50" relative="1" as="geometry">
            <mxPoint x="750" y="1229" as="sourcePoint" />
            <mxPoint x="800" y="1179" as="targetPoint" />
          </mxGeometry>
        </mxCell>
        <mxCell id="uXUv7unUy_RP0yoppeyo-107" value="" style="endArrow=classic;html=1;rounded=0;exitX=0;exitY=1;exitDx=0;exitDy=0;entryX=1;entryY=0;entryDx=0;entryDy=0;" parent="1" source="uXUv7unUy_RP0yoppeyo-21" target="uXUv7unUy_RP0yoppeyo-22" edge="1">
          <mxGeometry width="50" height="50" relative="1" as="geometry">
            <mxPoint x="750" y="1229" as="sourcePoint" />
            <mxPoint x="800" y="1179" as="targetPoint" />
          </mxGeometry>
        </mxCell>
        <mxCell id="uXUv7unUy_RP0yoppeyo-108" value="" style="shape=waypoint;sketch=0;fillStyle=solid;size=6;pointerEvents=1;points=[];fillColor=none;resizable=0;rotatable=0;perimeter=centerPerimeter;snapToPoint=1;" parent="1" vertex="1">
          <mxGeometry x="857" y="1110" width="20" height="20" as="geometry" />
        </mxCell>
        <mxCell id="uXUv7unUy_RP0yoppeyo-109" value="d00" style="text;html=1;align=center;verticalAlign=middle;resizable=0;points=[];autosize=1;strokeColor=none;fillColor=none;" parent="1" vertex="1">
          <mxGeometry x="822" y="1104" width="40" height="30" as="geometry" />
        </mxCell>
        <mxCell id="uXUv7unUy_RP0yoppeyo-125" value="" style="endArrow=classic;html=1;rounded=0;exitX=0.809;exitY=0.677;exitDx=0;exitDy=0;exitPerimeter=0;entryX=0.5;entryY=0;entryDx=0;entryDy=0;" parent="1" source="uXUv7unUy_RP0yoppeyo-48" target="uXUv7unUy_RP0yoppeyo-40" edge="1">
          <mxGeometry width="50" height="50" relative="1" as="geometry">
            <mxPoint x="940" y="1269" as="sourcePoint" />
            <mxPoint x="990" y="1219" as="targetPoint" />
          </mxGeometry>
        </mxCell>
        <mxCell id="uXUv7unUy_RP0yoppeyo-126" value="" style="endArrow=classic;html=1;rounded=0;exitX=0.5;exitY=1;exitDx=0;exitDy=0;entryX=0.5;entryY=0;entryDx=0;entryDy=0;" parent="1" source="uXUv7unUy_RP0yoppeyo-24" target="uXUv7unUy_RP0yoppeyo-30" edge="1">
          <mxGeometry width="50" height="50" relative="1" as="geometry">
            <mxPoint x="940" y="1269" as="sourcePoint" />
            <mxPoint x="990" y="1219" as="targetPoint" />
          </mxGeometry>
        </mxCell>
        <mxCell id="uXUv7unUy_RP0yoppeyo-127" value="" style="endArrow=classic;html=1;rounded=0;exitX=0.868;exitY=0.377;exitDx=0;exitDy=0;exitPerimeter=0;entryX=0;entryY=0;entryDx=0;entryDy=0;" parent="1" source="uXUv7unUy_RP0yoppeyo-52" target="uXUv7unUy_RP0yoppeyo-30" edge="1">
          <mxGeometry width="50" height="50" relative="1" as="geometry">
            <mxPoint x="940" y="1269" as="sourcePoint" />
            <mxPoint x="990" y="1219" as="targetPoint" />
          </mxGeometry>
        </mxCell>
        <mxCell id="uXUv7unUy_RP0yoppeyo-128" value="" style="endArrow=classic;html=1;rounded=0;exitX=0.5;exitY=1;exitDx=0;exitDy=0;entryX=0;entryY=0;entryDx=0;entryDy=0;" parent="1" source="uXUv7unUy_RP0yoppeyo-30" target="uXUv7unUy_RP0yoppeyo-40" edge="1">
          <mxGeometry width="50" height="50" relative="1" as="geometry">
            <mxPoint x="940" y="1269" as="sourcePoint" />
            <mxPoint x="990" y="1219" as="targetPoint" />
          </mxGeometry>
        </mxCell>
        <mxCell id="uXUv7unUy_RP0yoppeyo-129" value="" style="endArrow=classic;html=1;rounded=0;exitX=0.5;exitY=1;exitDx=0;exitDy=0;entryX=1;entryY=0;entryDx=0;entryDy=0;" parent="1" source="uXUv7unUy_RP0yoppeyo-40" target="uXUv7unUy_RP0yoppeyo-37" edge="1">
          <mxGeometry width="50" height="50" relative="1" as="geometry">
            <mxPoint x="940" y="1269" as="sourcePoint" />
            <mxPoint x="990" y="1219" as="targetPoint" />
          </mxGeometry>
        </mxCell>
        <mxCell id="uXUv7unUy_RP0yoppeyo-130" value="" style="endArrow=classic;html=1;rounded=0;exitX=1;exitY=1;exitDx=0;exitDy=0;entryX=0;entryY=0;entryDx=0;entryDy=0;" parent="1" source="uXUv7unUy_RP0yoppeyo-22" target="uXUv7unUy_RP0yoppeyo-37" edge="1">
          <mxGeometry width="50" height="50" relative="1" as="geometry">
            <mxPoint x="940" y="1269" as="sourcePoint" />
            <mxPoint x="990" y="1219" as="targetPoint" />
          </mxGeometry>
        </mxCell>
        <mxCell id="uXUv7unUy_RP0yoppeyo-131" value="" style="endArrow=classic;html=1;rounded=0;exitX=0.5;exitY=1;exitDx=0;exitDy=0;entryX=1;entryY=0;entryDx=0;entryDy=0;" parent="1" source="uXUv7unUy_RP0yoppeyo-37" target="uXUv7unUy_RP0yoppeyo-38" edge="1">
          <mxGeometry width="50" height="50" relative="1" as="geometry">
            <mxPoint x="940" y="1269" as="sourcePoint" />
            <mxPoint x="990" y="1219" as="targetPoint" />
          </mxGeometry>
        </mxCell>
        <mxCell id="uXUv7unUy_RP0yoppeyo-132" value="" style="endArrow=classic;html=1;rounded=0;exitX=0.5;exitY=1;exitDx=0;exitDy=0;entryX=0;entryY=0;entryDx=0;entryDy=0;" parent="1" source="uXUv7unUy_RP0yoppeyo-36" target="uXUv7unUy_RP0yoppeyo-38" edge="1">
          <mxGeometry width="50" height="50" relative="1" as="geometry">
            <mxPoint x="940" y="1269" as="sourcePoint" />
            <mxPoint x="990" y="1219" as="targetPoint" />
          </mxGeometry>
        </mxCell>
        <mxCell id="uXUv7unUy_RP0yoppeyo-133" value="" style="endArrow=classic;html=1;rounded=0;exitX=0;exitY=1;exitDx=0;exitDy=0;entryX=1;entryY=0;entryDx=0;entryDy=0;" parent="1" source="uXUv7unUy_RP0yoppeyo-39" target="uXUv7unUy_RP0yoppeyo-36" edge="1">
          <mxGeometry width="50" height="50" relative="1" as="geometry">
            <mxPoint x="940" y="1269" as="sourcePoint" />
            <mxPoint x="990" y="1219" as="targetPoint" />
          </mxGeometry>
        </mxCell>
        <mxCell id="uXUv7unUy_RP0yoppeyo-134" value="" style="endArrow=classic;html=1;rounded=0;entryX=1;entryY=0;entryDx=0;entryDy=0;" parent="1" source="uXUv7unUy_RP0yoppeyo-108" target="uXUv7unUy_RP0yoppeyo-39" edge="1">
          <mxGeometry width="50" height="50" relative="1" as="geometry">
            <mxPoint x="940" y="1269" as="sourcePoint" />
            <mxPoint x="990" y="1219" as="targetPoint" />
          </mxGeometry>
        </mxCell>
        <mxCell id="uXUv7unUy_RP0yoppeyo-135" value="a01 * b10 (d001)" style="text;html=1;align=center;verticalAlign=middle;resizable=0;points=[];autosize=1;strokeColor=none;fillColor=none;" parent="1" vertex="1">
          <mxGeometry x="483" y="-119" width="110" height="30" as="geometry" />
        </mxCell>
        <mxCell id="uXUv7unUy_RP0yoppeyo-136" value="1 - d000" style="text;html=1;align=center;verticalAlign=middle;resizable=0;points=[];autosize=1;strokeColor=none;fillColor=none;" parent="1" vertex="1">
          <mxGeometry x="230" y="19.999999999999993" width="70" height="30" as="geometry" />
        </mxCell>
        <mxCell id="uXUv7unUy_RP0yoppeyo-137" value="1 - d001" style="text;html=1;align=center;verticalAlign=middle;resizable=0;points=[];autosize=1;strokeColor=none;fillColor=none;" parent="1" vertex="1">
          <mxGeometry x="400" y="19.999999999999993" width="70" height="30" as="geometry" />
        </mxCell>
        <mxCell id="uXUv7unUy_RP0yoppeyo-138" value="(1-d000)*(1-d001)" style="text;html=1;align=center;verticalAlign=middle;resizable=0;points=[];autosize=1;strokeColor=none;fillColor=none;" parent="1" vertex="1">
          <mxGeometry x="335" y="90" width="120" height="30" as="geometry" />
        </mxCell>
        <mxCell id="uXUv7unUy_RP0yoppeyo-139" value="1 - (1-d000)*(1-d001) (d00)" style="text;html=1;align=center;verticalAlign=middle;resizable=0;points=[];autosize=1;strokeColor=none;fillColor=none;" parent="1" vertex="1">
          <mxGeometry x="206" y="165" width="170" height="30" as="geometry" />
        </mxCell>
        <mxCell id="uXUv7unUy_RP0yoppeyo-140" value="1 - a00" style="text;html=1;align=center;verticalAlign=middle;resizable=0;points=[];autosize=1;strokeColor=none;fillColor=none;" parent="1" vertex="1">
          <mxGeometry x="486" y="-44" width="60" height="30" as="geometry" />
        </mxCell>
        <mxCell id="uXUv7unUy_RP0yoppeyo-141" value="1 - b00" style="text;html=1;align=center;verticalAlign=middle;resizable=0;points=[];autosize=1;strokeColor=none;fillColor=none;" parent="1" vertex="1">
          <mxGeometry x="651" y="-49" width="60" height="30" as="geometry" />
        </mxCell>
        <mxCell id="uXUv7unUy_RP0yoppeyo-142" value="1 - e0" style="text;html=1;align=center;verticalAlign=middle;resizable=0;points=[];autosize=1;strokeColor=none;fillColor=none;" parent="1" vertex="1">
          <mxGeometry x="731" y="-37.96000000000001" width="50" height="30" as="geometry" />
        </mxCell>
        <mxCell id="uXUv7unUy_RP0yoppeyo-143" value="1 - a01" style="text;html=1;align=center;verticalAlign=middle;resizable=0;points=[];autosize=1;strokeColor=none;fillColor=none;" parent="1" vertex="1">
          <mxGeometry x="848" y="-42.96000000000001" width="60" height="30" as="geometry" />
        </mxCell>
        <mxCell id="uXUv7unUy_RP0yoppeyo-144" value="1 - e1" style="text;html=1;align=center;verticalAlign=middle;resizable=0;points=[];autosize=1;strokeColor=none;fillColor=none;" parent="1" vertex="1">
          <mxGeometry x="1050" y="-47.96000000000001" width="50" height="30" as="geometry" />
        </mxCell>
        <mxCell id="uXUv7unUy_RP0yoppeyo-145" value="1 - b10" style="text;html=1;align=center;verticalAlign=middle;resizable=0;points=[];autosize=1;strokeColor=none;fillColor=none;" parent="1" vertex="1">
          <mxGeometry x="980" y="-47.96000000000001" width="60" height="30" as="geometry" />
        </mxCell>
        <mxCell id="uXUv7unUy_RP0yoppeyo-146" value="2*e0" style="text;html=1;align=center;verticalAlign=middle;resizable=0;points=[];autosize=1;strokeColor=none;fillColor=none;" parent="1" vertex="1">
          <mxGeometry x="842" y="230" width="50" height="30" as="geometry" />
        </mxCell>
        <mxCell id="uXUv7unUy_RP0yoppeyo-147" value="2*e1" style="text;html=1;align=center;verticalAlign=middle;resizable=0;points=[];autosize=1;strokeColor=none;fillColor=none;" parent="1" vertex="1">
          <mxGeometry x="1090" y="240" width="50" height="30" as="geometry" />
        </mxCell>
        <mxCell id="uXUv7unUy_RP0yoppeyo-148" value="min((b00/(1-a00)), 1)" style="text;html=1;align=center;verticalAlign=middle;resizable=0;points=[];autosize=1;strokeColor=none;fillColor=none;" parent="1" vertex="1">
          <mxGeometry x="475" y="369" width="130" height="30" as="geometry" />
        </mxCell>
        <mxCell id="uXUv7unUy_RP0yoppeyo-149" value="min((a00/(1-b00)), 1)" style="text;html=1;align=center;verticalAlign=middle;resizable=0;points=[];autosize=1;strokeColor=none;fillColor=none;" parent="1" vertex="1">
          <mxGeometry x="685" y="369" width="130" height="30" as="geometry" />
        </mxCell>
        <mxCell id="uXUv7unUy_RP0yoppeyo-152" value="4*min((b10/(1-a01)), 1)" style="text;html=1;align=center;verticalAlign=middle;resizable=0;points=[];autosize=1;strokeColor=none;fillColor=none;" parent="1" vertex="1">
          <mxGeometry x="798" y="439" width="150" height="30" as="geometry" />
        </mxCell>
        <mxCell id="uXUv7unUy_RP0yoppeyo-153" value="4*min((b10/(1-a01)), 1)&amp;nbsp;- 2" style="text;html=1;align=center;verticalAlign=middle;resizable=0;points=[];autosize=1;strokeColor=none;fillColor=none;" parent="1" vertex="1">
          <mxGeometry x="817" y="514" width="160" height="30" as="geometry" />
        </mxCell>
        <mxCell id="uXUv7unUy_RP0yoppeyo-154" value="2*e0 - 1" style="text;html=1;align=center;verticalAlign=middle;resizable=0;points=[];autosize=1;strokeColor=none;fillColor=none;" parent="1" vertex="1">
          <mxGeometry x="730" y="514" width="70" height="30" as="geometry" />
        </mxCell>
        <mxCell id="uXUv7unUy_RP0yoppeyo-155" value="4*min((b00/(1-a00)), 1)" style="text;html=1;align=center;verticalAlign=middle;resizable=0;points=[];autosize=1;strokeColor=none;fillColor=none;" parent="1" vertex="1">
          <mxGeometry x="330" y="439" width="150" height="30" as="geometry" />
        </mxCell>
        <mxCell id="uXUv7unUy_RP0yoppeyo-156" value="4*min((b00/(1-a00)), 1)&amp;nbsp;- 2" style="text;html=1;align=center;verticalAlign=middle;resizable=0;points=[];autosize=1;strokeColor=none;fillColor=none;" parent="1" vertex="1">
          <mxGeometry x="365" y="509" width="160" height="30" as="geometry" />
        </mxCell>
        <mxCell id="uXUv7unUy_RP0yoppeyo-157" value="(4*min((b00/(1-a00)), 1)&amp;nbsp;- 2)*e0" style="text;html=1;align=center;verticalAlign=middle;resizable=0;points=[];autosize=1;strokeColor=none;fillColor=none;" parent="1" vertex="1">
          <mxGeometry x="375" y="579" width="190" height="30" as="geometry" />
        </mxCell>
        <mxCell id="uXUv7unUy_RP0yoppeyo-158" value="min((b00/(1-a00)), 1)* (2*e0 - 1)" style="text;html=1;align=center;verticalAlign=middle;resizable=0;points=[];autosize=1;strokeColor=none;fillColor=none;" parent="1" vertex="1">
          <mxGeometry x="600" y="581.5" width="190" height="30" as="geometry" />
        </mxCell>
        <mxCell id="uXUv7unUy_RP0yoppeyo-159" value="(4*min((b10/(1-a01)), 1)- 2)*e1" style="text;html=1;align=center;verticalAlign=middle;resizable=0;points=[];autosize=1;strokeColor=none;fillColor=none;" parent="1" vertex="1">
          <mxGeometry x="794" y="582" width="190" height="30" as="geometry" />
        </mxCell>
        <mxCell id="uXUv7unUy_RP0yoppeyo-160" value="2*e1 - 1" style="text;html=1;align=center;verticalAlign=middle;resizable=0;points=[];autosize=1;strokeColor=none;fillColor=none;" parent="1" vertex="1">
          <mxGeometry x="1070" y="514" width="70" height="30" as="geometry" />
        </mxCell>
        <mxCell id="uXUv7unUy_RP0yoppeyo-161" value="min((b10/(1-a01)), 1)&amp;nbsp;* (2*e1 - 1)" style="text;html=1;align=center;verticalAlign=middle;resizable=0;points=[];autosize=1;strokeColor=none;fillColor=none;" parent="1" vertex="1">
          <mxGeometry x="983" y="583" width="200" height="30" as="geometry" />
        </mxCell>
        <mxCell id="uXUv7unUy_RP0yoppeyo-164" value="min((b10/(1-a01)), 1) * (2*e1 - 1) * e1" style="text;html=1;align=center;verticalAlign=middle;resizable=0;points=[];autosize=1;strokeColor=none;fillColor=none;" parent="1" vertex="1">
          <mxGeometry x="1000" y="649" width="220" height="30" as="geometry" />
        </mxCell>
        <mxCell id="uXUv7unUy_RP0yoppeyo-165" value="min((b00/(1-a00)), 1)&amp;nbsp;* (2*e0 - 1) * e0" style="text;html=1;align=center;verticalAlign=middle;resizable=0;points=[];autosize=1;strokeColor=none;fillColor=none;" parent="1" vertex="1">
          <mxGeometry x="562.5" y="649" width="220" height="30" as="geometry" />
        </mxCell>
        <mxCell id="uXUv7unUy_RP0yoppeyo-166" value="1 + (4*min((b00/(1-a00)), 1)&amp;nbsp;- 2)*e0" style="text;html=1;align=center;verticalAlign=middle;resizable=0;points=[];autosize=1;strokeColor=none;fillColor=none;" parent="1" vertex="1">
          <mxGeometry x="335" y="714" width="210" height="30" as="geometry" />
        </mxCell>
        <mxCell id="uXUv7unUy_RP0yoppeyo-167" value="min((b00/(1-a00)), 1)* (1 + (4*min((b00/(1-a00)), 1)&amp;nbsp;- 2)*e0)" style="text;html=1;align=center;verticalAlign=middle;resizable=0;points=[];autosize=1;strokeColor=none;fillColor=none;" parent="1" vertex="1">
          <mxGeometry x="280" y="789" width="340" height="30" as="geometry" />
        </mxCell>
        <mxCell id="uXUv7unUy_RP0yoppeyo-168" value="min((b00/(1-a00)), 1)&amp;nbsp;* (1 + (4*min((b00/(1-a00)), 1)&amp;nbsp;- 2)*e0) * (1 - e0)" style="text;html=1;align=center;verticalAlign=middle;resizable=0;points=[];autosize=1;strokeColor=none;fillColor=none;" parent="1" vertex="1">
          <mxGeometry x="290" y="854" width="390" height="30" as="geometry" />
        </mxCell>
        <mxCell id="bSW2Z9lwdU_Fbau3nXrd-1" value="1 + (4*min((b10/(1-a01)), 1)&amp;nbsp;- 2)*e1" style="text;html=1;align=center;verticalAlign=middle;resizable=0;points=[];autosize=1;strokeColor=none;fillColor=none;" parent="1" vertex="1">
          <mxGeometry x="930" y="720" width="210" height="30" as="geometry" />
        </mxCell>
        <mxCell id="bSW2Z9lwdU_Fbau3nXrd-2" value="min((a01/(1-b10)), 1)&amp;nbsp;* (1 + (4*min((b10/(1-a01)), 1)&amp;nbsp;- 2)*e1)" style="text;html=1;align=center;verticalAlign=middle;resizable=0;points=[];autosize=1;strokeColor=none;fillColor=none;" parent="1" vertex="1">
          <mxGeometry x="681" y="796" width="340" height="30" as="geometry" />
        </mxCell>
        <mxCell id="bSW2Z9lwdU_Fbau3nXrd-3" value="&amp;nbsp;min((a01/(1-b10)), 1) * (1 + (4*min((b10/(1-a01)), 1)&amp;nbsp;- 2)*e1) * (1 - e1)" style="text;html=1;align=center;verticalAlign=middle;resizable=0;points=[];autosize=1;strokeColor=none;fillColor=none;" parent="1" vertex="1">
          <mxGeometry x="709" y="855" width="390" height="30" as="geometry" />
        </mxCell>
        <mxCell id="bSW2Z9lwdU_Fbau3nXrd-4" value="min((b00/(1-a00)), 1)&amp;nbsp;* (1 + (4*min((b00/(1-a00)), 1)&amp;nbsp;- 2)*e0) * (1 - e0)&amp;nbsp;+ min((b00/(1-a00)), 1)*(2*e0-1)*e0 (f000)" style="text;html=1;align=center;verticalAlign=middle;resizable=0;points=[];autosize=1;strokeColor=none;fillColor=none;" parent="1" vertex="1">
          <mxGeometry x="270" y="919" width="610" height="30" as="geometry" />
        </mxCell>
        <mxCell id="bSW2Z9lwdU_Fbau3nXrd-5" value="&amp;nbsp;min((a01/(1-b10)), 1) * (1 + (4*min((b10/(1-a01)), 1)&amp;nbsp;- 2)*e1) * (1 - e1)+ min((b10/(1-a01)), 1) * (2*e1 - 1) * e1&amp;nbsp;(f001)" style="text;html=1;align=center;verticalAlign=middle;resizable=0;points=[];autosize=1;strokeColor=none;fillColor=none;" parent="1" vertex="1">
          <mxGeometry x="550" y="939" width="630" height="30" as="geometry" />
        </mxCell>
        <mxCell id="bSW2Z9lwdU_Fbau3nXrd-7" value="f000 * f001 (f00)" style="text;html=1;align=center;verticalAlign=middle;resizable=0;points=[];autosize=1;strokeColor=none;fillColor=none;" parent="1" vertex="1">
          <mxGeometry x="617.5" y="999" width="110" height="30" as="geometry" />
        </mxCell>
        <mxCell id="bSW2Z9lwdU_Fbau3nXrd-8" value="3 * g00" style="text;html=1;align=center;verticalAlign=middle;resizable=0;points=[];autosize=1;strokeColor=none;fillColor=none;" parent="1" vertex="1">
          <mxGeometry x="955" y="1139" width="60" height="30" as="geometry" />
        </mxCell>
        <mxCell id="bSW2Z9lwdU_Fbau3nXrd-9" value="min(f00, d00)" style="text;html=1;align=center;verticalAlign=middle;resizable=0;points=[];autosize=1;strokeColor=none;fillColor=none;" parent="1" vertex="1">
          <mxGeometry x="525" y="1074" width="90" height="30" as="geometry" />
        </mxCell>
        <mxCell id="bSW2Z9lwdU_Fbau3nXrd-10" value="4 * min(f00, d00)" style="text;html=1;align=center;verticalAlign=middle;resizable=0;points=[];autosize=1;strokeColor=none;fillColor=none;" parent="1" vertex="1">
          <mxGeometry x="545" y="1139" width="110" height="30" as="geometry" />
        </mxCell>
        <mxCell id="bSW2Z9lwdU_Fbau3nXrd-11" value="4 * min(f00, d00)&amp;nbsp;- 3 * d00" style="text;html=1;align=center;verticalAlign=middle;resizable=0;points=[];autosize=1;strokeColor=none;fillColor=none;" parent="1" vertex="1">
          <mxGeometry x="711" y="1209" width="160" height="30" as="geometry" />
        </mxCell>
        <mxCell id="bSW2Z9lwdU_Fbau3nXrd-12" value="3 * d00" style="text;html=1;align=center;verticalAlign=middle;resizable=0;points=[];autosize=1;strokeColor=none;fillColor=none;" parent="1" vertex="1">
          <mxGeometry x="700" y="1139" width="60" height="30" as="geometry" />
        </mxCell>
        <mxCell id="bSW2Z9lwdU_Fbau3nXrd-13" value="1 - g00" style="text;html=1;align=center;verticalAlign=middle;resizable=0;points=[];autosize=1;strokeColor=none;fillColor=none;" parent="1" vertex="1">
          <mxGeometry x="485" y="1214" width="60" height="30" as="geometry" />
        </mxCell>
        <mxCell id="bSW2Z9lwdU_Fbau3nXrd-14" value="(4 * min(f00, d00)&amp;nbsp;- 3 * d00) * g00" style="text;html=1;align=center;verticalAlign=middle;resizable=0;points=[];autosize=1;strokeColor=none;fillColor=none;" parent="1" vertex="1">
          <mxGeometry x="565" y="1289" width="200" height="30" as="geometry" />
        </mxCell>
        <mxCell id="bSW2Z9lwdU_Fbau3nXrd-15" value="d00 + (4 * min(f00, d00)&amp;nbsp;- 3 * d00) * g00" style="text;html=1;align=center;verticalAlign=middle;resizable=0;points=[];autosize=1;strokeColor=none;fillColor=none;" parent="1" vertex="1">
          <mxGeometry x="572.5" y="1349" width="230" height="30" as="geometry" />
        </mxCell>
        <mxCell id="bSW2Z9lwdU_Fbau3nXrd-16" value="(1 - g00) * (d00 + (4 * min(f00, d00)&amp;nbsp;- 3 * d00) * g00)" style="text;html=1;align=center;verticalAlign=middle;resizable=0;points=[];autosize=1;strokeColor=none;fillColor=none;" parent="1" vertex="1">
          <mxGeometry x="340" y="1419" width="300" height="30" as="geometry" />
        </mxCell>
        <mxCell id="bSW2Z9lwdU_Fbau3nXrd-17" value="3 * g00 - 2" style="text;html=1;align=center;verticalAlign=middle;resizable=0;points=[];autosize=1;strokeColor=none;fillColor=none;" parent="1" vertex="1">
          <mxGeometry x="920" y="1209" width="80" height="30" as="geometry" />
        </mxCell>
        <mxCell id="bSW2Z9lwdU_Fbau3nXrd-18" value="(3 * g00 - 2) * g00" style="text;html=1;align=center;verticalAlign=middle;resizable=0;points=[];autosize=1;strokeColor=none;fillColor=none;" parent="1" vertex="1">
          <mxGeometry x="950" y="1279" width="120" height="30" as="geometry" />
        </mxCell>
        <mxCell id="bSW2Z9lwdU_Fbau3nXrd-19" value="(3 * g00 - 2) * g00 * f00" style="text;html=1;align=center;verticalAlign=middle;resizable=0;points=[];autosize=1;strokeColor=none;fillColor=none;" parent="1" vertex="1">
          <mxGeometry x="910" y="1419" width="150" height="30" as="geometry" />
        </mxCell>
        <mxCell id="bSW2Z9lwdU_Fbau3nXrd-20" value="(3 * g00 - 2) * g00 * f00 + (1 - g00) * (d00 + (4 * min(f00, d00)&amp;nbsp;- 3 * d00) * g00) (c00)" style="text;html=1;align=center;verticalAlign=middle;resizable=0;points=[];autosize=1;strokeColor=none;fillColor=none;" parent="1" vertex="1">
          <mxGeometry x="357" y="1494" width="470" height="30" as="geometry" />
        </mxCell>
        <mxCell id="iML82PHEN0vILoig2JXb-2" value="" style="ellipse;whiteSpace=wrap;html=1;aspect=fixed;" vertex="1" parent="1">
          <mxGeometry x="561" y="305" width="20" height="20" as="geometry" />
        </mxCell>
        <mxCell id="iML82PHEN0vILoig2JXb-6" value="" style="ellipse;whiteSpace=wrap;html=1;aspect=fixed;" vertex="1" parent="1">
          <mxGeometry x="680" y="305" width="20" height="20" as="geometry" />
        </mxCell>
        <mxCell id="iML82PHEN0vILoig2JXb-4" value="b00/(1-a00)" style="text;html=1;align=center;verticalAlign=middle;whiteSpace=wrap;rounded=0;" vertex="1" parent="1">
          <mxGeometry x="480" y="300" width="90" height="30" as="geometry" />
        </mxCell>
        <mxCell id="WlIdeiedV5WxPYd-yGUF-148" value="" style="endArrow=classic;html=1;rounded=0;exitX=1.092;exitY=1.063;exitDx=0;exitDy=0;exitPerimeter=0;" parent="1" source="WlIdeiedV5WxPYd-yGUF-35" target="WlIdeiedV5WxPYd-yGUF-104" edge="1">
          <mxGeometry width="50" height="50" relative="1" as="geometry">
            <mxPoint x="540" y="370" as="sourcePoint" />
            <mxPoint x="590" y="320" as="targetPoint" />
          </mxGeometry>
        </mxCell>
        <mxCell id="iML82PHEN0vILoig2JXb-7" value="a00/(1-b00)" style="text;html=1;align=center;verticalAlign=middle;whiteSpace=wrap;rounded=0;" vertex="1" parent="1">
          <mxGeometry x="690" y="300" width="90" height="30" as="geometry" />
        </mxCell>
        <mxCell id="uXUv7unUy_RP0yoppeyo-67" value="" style="endArrow=classic;html=1;rounded=0;exitX=0.5;exitY=1;exitDx=0;exitDy=0;entryX=0.5;entryY=0;entryDx=0;entryDy=0;" parent="1" source="WlIdeiedV5WxPYd-yGUF-52" target="iML82PHEN0vILoig2JXb-6" edge="1">
          <mxGeometry width="50" height="50" relative="1" as="geometry">
            <mxPoint x="520" y="770" as="sourcePoint" />
            <mxPoint x="570" y="720" as="targetPoint" />
          </mxGeometry>
        </mxCell>
        <mxCell id="iML82PHEN0vILoig2JXb-9" value="" style="endArrow=classic;html=1;rounded=0;entryX=0.794;entryY=0.072;entryDx=0;entryDy=0;exitX=-0.042;exitY=0.684;exitDx=0;exitDy=0;exitPerimeter=0;entryPerimeter=0;" edge="1" parent="1" source="iML82PHEN0vILoig2JXb-10" target="WlIdeiedV5WxPYd-yGUF-27">
          <mxGeometry width="50" height="50" relative="1" as="geometry">
            <mxPoint x="630" y="350" as="sourcePoint" />
            <mxPoint x="581" y="368" as="targetPoint" />
          </mxGeometry>
        </mxCell>
        <mxCell id="iML82PHEN0vILoig2JXb-10" value="" style="shape=waypoint;sketch=0;fillStyle=solid;size=6;pointerEvents=1;points=[];fillColor=none;resizable=0;rotatable=0;perimeter=centerPerimeter;snapToPoint=1;" vertex="1" parent="1">
          <mxGeometry x="635" y="335" width="20" height="20" as="geometry" />
        </mxCell>
        <mxCell id="iML82PHEN0vILoig2JXb-11" value="1" style="text;html=1;align=center;verticalAlign=middle;resizable=0;points=[];autosize=1;strokeColor=none;fillColor=none;" vertex="1" parent="1">
          <mxGeometry x="616" y="330" width="30" height="30" as="geometry" />
        </mxCell>
        <mxCell id="iML82PHEN0vILoig2JXb-12" value="" style="endArrow=classic;html=1;rounded=0;entryX=0;entryY=0;entryDx=0;entryDy=0;" edge="1" parent="1" source="iML82PHEN0vILoig2JXb-10" target="WlIdeiedV5WxPYd-yGUF-83">
          <mxGeometry width="50" height="50" relative="1" as="geometry">
            <mxPoint x="640" y="360" as="sourcePoint" />
            <mxPoint x="627" y="387" as="targetPoint" />
          </mxGeometry>
        </mxCell>
        <mxCell id="iML82PHEN0vILoig2JXb-14" value="" style="endArrow=classic;html=1;rounded=0;exitX=1;exitY=1;exitDx=0;exitDy=0;" edge="1" parent="1" source="iML82PHEN0vILoig2JXb-2" target="WlIdeiedV5WxPYd-yGUF-27">
          <mxGeometry width="50" height="50" relative="1" as="geometry">
            <mxPoint x="593.5" y="336.5" as="sourcePoint" />
            <mxPoint x="580.5" y="363.5" as="targetPoint" />
          </mxGeometry>
        </mxCell>
        <mxCell id="iML82PHEN0vILoig2JXb-15" value="" style="endArrow=classic;html=1;rounded=0;exitX=0.5;exitY=1;exitDx=0;exitDy=0;" edge="1" parent="1" source="iML82PHEN0vILoig2JXb-6" target="WlIdeiedV5WxPYd-yGUF-83">
          <mxGeometry width="50" height="50" relative="1" as="geometry">
            <mxPoint x="588" y="332" as="sourcePoint" />
            <mxPoint x="615" y="385" as="targetPoint" />
          </mxGeometry>
        </mxCell>
        <mxCell id="iML82PHEN0vILoig2JXb-16" value="1" style="text;html=1;align=center;verticalAlign=middle;resizable=0;points=[];autosize=1;strokeColor=none;fillColor=none;" vertex="1" parent="1">
          <mxGeometry x="980" y="335" width="30" height="30" as="geometry" />
        </mxCell>
        <mxCell id="iML82PHEN0vILoig2JXb-17" value="" style="shape=waypoint;sketch=0;fillStyle=solid;size=6;pointerEvents=1;points=[];fillColor=none;resizable=0;rotatable=0;perimeter=centerPerimeter;snapToPoint=1;" vertex="1" parent="1">
          <mxGeometry x="1000" y="340" width="20" height="20" as="geometry" />
        </mxCell>
        <mxCell id="iML82PHEN0vILoig2JXb-18" value="" style="endArrow=classic;html=1;rounded=0;entryX=0.964;entryY=0.309;entryDx=0;entryDy=0;exitX=-0.042;exitY=0.684;exitDx=0;exitDy=0;exitPerimeter=0;entryPerimeter=0;" edge="1" source="iML82PHEN0vILoig2JXb-17" parent="1" target="WlIdeiedV5WxPYd-yGUF-90">
          <mxGeometry width="50" height="50" relative="1" as="geometry">
            <mxPoint x="1040" y="355" as="sourcePoint" />
            <mxPoint x="1026" y="380" as="targetPoint" />
          </mxGeometry>
        </mxCell>
        <mxCell id="iML82PHEN0vILoig2JXb-19" value="" style="endArrow=classic;html=1;rounded=0;entryX=0;entryY=0.5;entryDx=0;entryDy=0;" edge="1" source="iML82PHEN0vILoig2JXb-17" parent="1" target="WlIdeiedV5WxPYd-yGUF-91">
          <mxGeometry width="50" height="50" relative="1" as="geometry">
            <mxPoint x="1050" y="365" as="sourcePoint" />
            <mxPoint x="1084" y="387" as="targetPoint" />
          </mxGeometry>
        </mxCell>
        <mxCell id="iML82PHEN0vILoig2JXb-20" value="" style="endArrow=classic;html=1;rounded=0;entryX=1;entryY=0;entryDx=0;entryDy=0;" edge="1" parent="1" source="WlIdeiedV5WxPYd-yGUF-33" target="iML82PHEN0vILoig2JXb-2">
          <mxGeometry width="50" height="50" relative="1" as="geometry">
            <mxPoint x="720" y="-140" as="sourcePoint" />
            <mxPoint x="670" y="-30" as="targetPoint" />
          </mxGeometry>
        </mxCell>
        <mxCell id="iML82PHEN0vILoig2JXb-21" value="" style="endArrow=classic;html=1;rounded=0;exitX=0.481;exitY=0.672;exitDx=0;exitDy=0;exitPerimeter=0;entryX=0;entryY=0;entryDx=0;entryDy=0;" edge="1" parent="1" source="WlIdeiedV5WxPYd-yGUF-32" target="iML82PHEN0vILoig2JXb-6">
          <mxGeometry width="50" height="50" relative="1" as="geometry">
            <mxPoint x="670" y="-130" as="sourcePoint" />
            <mxPoint x="670" y="-70" as="targetPoint" />
          </mxGeometry>
        </mxCell>
        <mxCell id="iML82PHEN0vILoig2JXb-22" value="" style="ellipse;whiteSpace=wrap;html=1;aspect=fixed;" vertex="1" parent="1">
          <mxGeometry x="890" y="307" width="20" height="20" as="geometry" />
        </mxCell>
        <mxCell id="iML82PHEN0vILoig2JXb-23" value="b10/(1-a01)" style="text;html=1;align=center;verticalAlign=middle;whiteSpace=wrap;rounded=0;" vertex="1" parent="1">
          <mxGeometry x="810" y="300" width="90" height="30" as="geometry" />
        </mxCell>
        <mxCell id="iML82PHEN0vILoig2JXb-24" value="" style="ellipse;whiteSpace=wrap;html=1;aspect=fixed;" vertex="1" parent="1">
          <mxGeometry x="1050" y="305" width="20" height="20" as="geometry" />
        </mxCell>
        <mxCell id="iML82PHEN0vILoig2JXb-25" value="a01/(1-b10)" style="text;html=1;align=center;verticalAlign=middle;whiteSpace=wrap;rounded=0;" vertex="1" parent="1">
          <mxGeometry x="1060" y="300" width="90" height="30" as="geometry" />
        </mxCell>
        <mxCell id="iML82PHEN0vILoig2JXb-26" value="" style="endArrow=classic;html=1;rounded=0;exitX=0.664;exitY=0.717;exitDx=0;exitDy=0;exitPerimeter=0;entryX=0;entryY=0;entryDx=0;entryDy=0;" edge="1" parent="1" source="WlIdeiedV5WxPYd-yGUF-37" target="iML82PHEN0vILoig2JXb-24">
          <mxGeometry width="50" height="50" relative="1" as="geometry">
            <mxPoint x="1026" y="-129" as="sourcePoint" />
            <mxPoint x="917" y="320" as="targetPoint" />
          </mxGeometry>
        </mxCell>
        <mxCell id="iML82PHEN0vILoig2JXb-27" value="min((b10/(1-a01)), 1)" style="text;align=center;verticalAlign=middle;resizable=0;points=[];autosize=1;strokeColor=none;fillColor=none;rotation=0;strokeWidth=1;perimeterSpacing=0;fontSize=12;" vertex="1" parent="1">
          <mxGeometry x="850" y="367" width="130" height="30" as="geometry" />
        </mxCell>
        <mxCell id="iML82PHEN0vILoig2JXb-28" value="min((a01/(1-b10)), 1)" style="text;align=center;verticalAlign=middle;resizable=0;points=[];autosize=1;strokeColor=none;fillColor=none;" vertex="1" parent="1">
          <mxGeometry x="1110" y="370" width="130" height="30" as="geometry" />
        </mxCell>
        <mxCell id="iML82PHEN0vILoig2JXb-32" value="" style="endArrow=classic;html=1;rounded=0;entryX=0.5;entryY=0;entryDx=0;entryDy=0;exitX=1;exitY=1;exitDx=0;exitDy=0;" edge="1" parent="1" source="iML82PHEN0vILoig2JXb-22" target="WlIdeiedV5WxPYd-yGUF-90">
          <mxGeometry width="50" height="50" relative="1" as="geometry">
            <mxPoint x="1020" y="360" as="sourcePoint" />
            <mxPoint x="999" y="390" as="targetPoint" />
          </mxGeometry>
        </mxCell>
        <mxCell id="iML82PHEN0vILoig2JXb-33" value="" style="endArrow=classic;html=1;rounded=0;entryX=0.27;entryY=0.138;entryDx=0;entryDy=0;exitX=0.687;exitY=1.039;exitDx=0;exitDy=0;exitPerimeter=0;entryPerimeter=0;" edge="1" parent="1" source="iML82PHEN0vILoig2JXb-24" target="WlIdeiedV5WxPYd-yGUF-91">
          <mxGeometry width="50" height="50" relative="1" as="geometry">
            <mxPoint x="1020" y="360" as="sourcePoint" />
            <mxPoint x="999" y="390" as="targetPoint" />
          </mxGeometry>
        </mxCell>
      </root>
    </mxGraphModel>
  </diagram>
</mxfile>
